<svg width="28" height="20" viewBox="0 0 28 20" fill="none" xmlns="http://www.w3.org/2000/svg">
<rect x="0.25" y="0.25" width="27.5" height="19.5" rx="1.75" fill="white" stroke="#F5F5F5" stroke-width="0.5"/>
<mask id="mask0_704_33128" style="mask-type:luminance" maskUnits="userSpaceOnUse" x="0" y="0" width="28" height="20">
<rect x="0.25" y="0.25" width="27.5" height="19.5" rx="1.75" fill="white" stroke="white" stroke-width="0.5"/>
</mask>
<g mask="url(#mask0_704_33128)">
<rect x="10.6665" width="6.66667" height="20" fill="#D6182D"/>
<rect y="6.66675" width="28" height="6.66667" fill="#1425A2"/>
<path fill-rule="evenodd" clip-rule="evenodd" d="M11.3332 11.6667L10.8618 11.8048L10.9998 11.3334L10.8618 10.862L11.3332 11.0001L11.8046 10.862L11.6665 11.3334L11.8046 11.8048L11.3332 11.6667Z" fill="white"/>
<path fill-rule="evenodd" clip-rule="evenodd" d="M16.6667 11.6667L16.1953 11.8048L16.3333 11.3334L16.1953 10.862L16.6667 11.0001L17.1381 10.862L17 11.3334L17.1381 11.8048L16.6667 11.6667Z" fill="white"/>
<path fill-rule="evenodd" clip-rule="evenodd" d="M8.66667 10.3333L8.19526 10.4713L8.33333 9.99992L8.19526 9.52851L8.66667 9.66659L9.13807 9.52851L9 9.99992L9.13807 10.4713L8.66667 10.3333Z" fill="white"/>
<path fill-rule="evenodd" clip-rule="evenodd" d="M19.3332 10.3333L18.8618 10.4713L18.9998 9.99992L18.8618 9.52851L19.3332 9.66659L19.8046 9.52851L19.6665 9.99992L19.8046 10.4713L19.3332 10.3333Z" fill="white"/>
<path fill-rule="evenodd" clip-rule="evenodd" d="M14.0002 9L13.5288 9.13807L13.6668 8.66667L13.5288 8.19526L14.0002 8.33333L14.4716 8.19526L14.3335 8.66667L14.4716 9.13807L14.0002 9Z" fill="white"/>
</g>
</svg>
