<svg width="28" height="20" viewBox="0 0 28 20" fill="none" xmlns="http://www.w3.org/2000/svg">
<rect width="28" height="20" rx="2" fill="white"/>
<mask id="mask0_704_31354" style="mask-type:luminance" maskUnits="userSpaceOnUse" x="0" y="0" width="28" height="20">
<rect width="28" height="20" rx="2" fill="white"/>
</mask>
<g mask="url(#mask0_704_31354)">
<rect width="28" height="20" fill="#05AB41"/>
<path fill-rule="evenodd" clip-rule="evenodd" d="M3.53152 10.5598C3.12552 10.2971 3.12552 9.70307 3.53152 9.44037L13.6377 2.90109C13.8581 2.75849 14.1416 2.75849 14.362 2.90109L24.4682 9.44037C24.8742 9.70307 24.8742 10.2971 24.4682 10.5598L14.362 17.0991C14.1416 17.2417 13.8581 17.2417 13.6377 17.0991L3.53152 10.5598Z" fill="#FDD216"/>
<path fill-rule="evenodd" clip-rule="evenodd" d="M14.0002 14.6666C16.5775 14.6666 18.6668 12.5772 18.6668 9.99992C18.6668 7.42259 16.5775 5.33325 14.0002 5.33325C11.4228 5.33325 9.3335 7.42259 9.3335 9.99992C9.3335 12.5772 11.4228 14.6666 14.0002 14.6666Z" fill="#053087"/>
<mask id="mask1_704_31354" style="mask-type:luminance" maskUnits="userSpaceOnUse" x="9" y="5" width="10" height="10">
<path fill-rule="evenodd" clip-rule="evenodd" d="M14.0002 14.6666C16.5775 14.6666 18.6668 12.5772 18.6668 9.99992C18.6668 7.42259 16.5775 5.33325 14.0002 5.33325C11.4228 5.33325 9.3335 7.42259 9.3335 9.99992C9.3335 12.5772 11.4228 14.6666 14.0002 14.6666Z" fill="white"/>
</mask>
<g mask="url(#mask1_704_31354)">
<path d="M8.77987 8.78008C9.51257 8.18676 11.8769 8.74883 14.084 9.33757C16.291 9.92631 18.5929 11.1603 19.179 11.8841" stroke="white" stroke-width="1.33333" stroke-linecap="square"/>
</g>
</g>
</svg>
