<svg width="28" height="20" viewBox="0 0 28 20" fill="none" xmlns="http://www.w3.org/2000/svg">
<rect x="0.25" y="0.25" width="27.5" height="19.5" rx="1.75" fill="white" stroke="#F5F5F5" stroke-width="0.5"/>
<mask id="mask0_704_31412" style="mask-type:luminance" maskUnits="userSpaceOnUse" x="0" y="0" width="28" height="20">
<rect x="0.25" y="0.25" width="27.5" height="19.5" rx="1.75" fill="white" stroke="white" stroke-width="0.5"/>
</mask>
<g mask="url(#mask0_704_31412)">
<rect x="20" width="8" height="20" fill="#FF3131"/>
<path fill-rule="evenodd" clip-rule="evenodd" d="M0 20H8V0H0V20Z" fill="#FF3131"/>
<path fill-rule="evenodd" clip-rule="evenodd" d="M16.112 9.22145C15.8788 9.45465 15.4847 9.24377 15.5494 8.92037L16.0002 6.66659L14.6668 7.33325L14.0002 5.33325L13.3335 7.33325L12.0002 6.66659L12.4509 8.92037C12.5156 9.24377 12.1216 9.45465 11.8884 9.22145L11.5692 8.90229C11.439 8.77211 11.228 8.77211 11.0978 8.90229L10.6668 9.33325L9.3335 8.66659L10.0002 9.99992L9.5692 10.4309C9.43902 10.5611 9.43902 10.7721 9.5692 10.9023L11.3335 12.6666H13.3335L13.6668 14.6666H14.3335L14.6668 12.6666H16.6668L18.4311 10.9023C18.5613 10.7721 18.5613 10.5611 18.4311 10.4309L18.0002 9.99992L18.6668 8.66659L17.3335 9.33325L16.9025 8.90229C16.7724 8.77211 16.5613 8.77211 16.4311 8.90229L16.112 9.22145Z" fill="#FF3131"/>
</g>
</svg>
