<svg width="28" height="20" viewBox="0 0 28 20" fill="none" xmlns="http://www.w3.org/2000/svg">
<rect width="28" height="20" rx="2" fill="white"/>
<mask id="mask0_704_31435" style="mask-type:luminance" maskUnits="userSpaceOnUse" x="0" y="0" width="28" height="20">
<rect width="28" height="20" rx="2" fill="white"/>
</mask>
<g mask="url(#mask0_704_31435)">
<rect width="28" height="20" fill="#F1361D"/>
<path fill-rule="evenodd" clip-rule="evenodd" d="M10.0728 3.10079L11.0412 3.26589L11.7675 3.92739L11.9326 2.95894L12.5941 2.23261L11.6257 2.0675L10.8994 1.40601L10.7342 2.37445L10.0728 3.10079ZM12.6668 6.48806L13.506 5.97731L14.4881 6.00003L13.9774 5.16082L14.0001 4.17866L13.1609 4.68941L12.1787 4.6667L12.6895 5.50591L12.6668 6.48806ZM11.5286 11.9709L10.7077 12.5106L10.6961 11.5283L10.1564 10.7074L11.1388 10.6958L11.9596 10.1561L11.9712 11.1385L12.5109 11.9593L11.5286 11.9709ZM12.2411 9.43147L13.2176 9.32324L14.0981 9.7589L13.9899 8.78246L14.4255 7.90193L13.4491 8.01016L12.5686 7.5745L12.6768 8.55093L12.2411 9.43147Z" fill="#FFDC42"/>
<path fill-rule="evenodd" clip-rule="evenodd" d="M6.6665 8.22675L4.31536 9.90282L5.18286 7.14881L2.86228 5.43068L5.74956 5.40468L6.6665 2.66675L7.58345 5.40468L10.4707 5.43068L8.15015 7.14881L9.01764 9.90282L6.6665 8.22675Z" fill="#FFDC42"/>
</g>
</svg>
