<svg width="28" height="20" viewBox="0 0 28 20" fill="none" xmlns="http://www.w3.org/2000/svg">
<rect width="28" height="20" rx="2" fill="white"/>
<mask id="mask0_704_31532" style="mask-type:luminance" maskUnits="userSpaceOnUse" x="0" y="0" width="28" height="20">
<rect width="28" height="20" rx="2" fill="white"/>
</mask>
<g mask="url(#mask0_704_31532)">
<path fill-rule="evenodd" clip-rule="evenodd" d="M0 8H28V0H0V8Z" fill="#108753"/>
<path fill-rule="evenodd" clip-rule="evenodd" d="M0 20H28V12H0V20Z" fill="#108753"/>
<path fill-rule="evenodd" clip-rule="evenodd" d="M16 20H12V12H0V8H12V0H16V8H28V12H16V20Z" fill="white"/>
<path fill-rule="evenodd" clip-rule="evenodd" d="M14.6667 20H13.3333V10.6667H0V9.33333H13.3333V0H14.6667V9.33333H28V10.6667H14.6667V20Z" fill="#262626"/>
<path fill-rule="evenodd" clip-rule="evenodd" d="M13.3333 20H12V9.33333H0V8H12V0H13.3333V8H28V9.33333H13.3333V20Z" fill="#FCD449"/>
<path fill-rule="evenodd" clip-rule="evenodd" d="M14.0002 14.6666C16.5775 14.6666 18.6668 12.5772 18.6668 9.99992C18.6668 7.42259 16.5775 5.33325 14.0002 5.33325C11.4228 5.33325 9.3335 7.42259 9.3335 9.99992C9.3335 12.5772 11.4228 14.6666 14.0002 14.6666Z" fill="url(#paint0_linear_704_31532)"/>
<path fill-rule="evenodd" clip-rule="evenodd" d="M13.9998 13.3334C15.8408 13.3334 17.3332 11.841 17.3332 10.0001C17.3332 8.15913 15.8408 6.66675 13.9998 6.66675C12.1589 6.66675 10.6665 8.15913 10.6665 10.0001C10.6665 11.841 12.1589 13.3334 13.9998 13.3334Z" stroke="#0E673F" stroke-width="1.33333" stroke-linecap="round" stroke-dasharray="0.67 2.67"/>
<path fill-rule="evenodd" clip-rule="evenodd" d="M14 11.3334C14.7364 11.3334 14.6666 10.7365 14.6666 10.0001C14.6666 9.2637 14.7364 8.66675 14 8.66675C13.2636 8.66675 13.3333 9.2637 13.3333 10.0001C13.3333 10.7365 13.2636 11.3334 14 11.3334Z" fill="#0E673F"/>
</g>
<defs>
<linearGradient id="paint0_linear_704_31532" x1="9.3335" y1="5.33325" x2="9.3335" y2="14.6666" gradientUnits="userSpaceOnUse">
<stop stop-color="#E02C42"/>
<stop offset="1" stop-color="#D22036"/>
</linearGradient>
</defs>
</svg>
