<svg width="28" height="20" viewBox="0 0 28 20" fill="none" xmlns="http://www.w3.org/2000/svg">
<rect width="28" height="20" rx="2" fill="white"/>
<mask id="mask0_704_31572" style="mask-type:luminance" maskUnits="userSpaceOnUse" x="0" y="0" width="28" height="20">
<rect width="28" height="20" rx="2" fill="white"/>
</mask>
<g mask="url(#mask0_704_31572)">
<path fill-rule="evenodd" clip-rule="evenodd" d="M0 14.6666H28V9.33325H0V14.6666Z" fill="#0748AE"/>
<path fill-rule="evenodd" clip-rule="evenodd" d="M0 20.0001H28V14.6667H0V20.0001Z" fill="#DE2035"/>
<path fill-rule="evenodd" clip-rule="evenodd" d="M0 9.33333H28V0H0V9.33333Z" fill="#FFD935"/>
<path fill-rule="evenodd" clip-rule="evenodd" d="M12.4001 8C11.7524 8.48651 11.3335 9.26108 11.3335 10.1335C11.3335 11.6062 12.5274 12.8002 14.0002 12.8002C15.4729 12.8002 16.6668 11.6062 16.6668 10.1335C16.6668 9.26108 16.2479 8.48651 15.6002 8L14.6668 10.8002H13.3335L12.4001 8Z" fill="#FFD935"/>
<path fill-rule="evenodd" clip-rule="evenodd" d="M14.0002 7.33325L14.6668 10.6666H13.3335L14.0002 7.33325Z" fill="#5FC0DC"/>
<path opacity="0.66" d="M17.3332 5.99992L15.3332 5.33325L13.9998 6.66659L12.6665 5.33325L10.6665 5.99992" stroke="#3F2821" stroke-width="0.666667" stroke-linecap="round" stroke-linejoin="round"/>
</g>
</svg>
