<svg width="28" height="20" viewBox="0 0 28 20" fill="none" xmlns="http://www.w3.org/2000/svg">
<rect x="0.25" y="0.25" width="27.5" height="19.5" rx="1.75" fill="white" stroke="#F5F5F5" stroke-width="0.5"/>
<mask id="mask0_704_31583" style="mask-type:luminance" maskUnits="userSpaceOnUse" x="0" y="0" width="28" height="20">
<rect x="0.25" y="0.25" width="27.5" height="19.5" rx="1.75" fill="white" stroke="white" stroke-width="0.5"/>
</mask>
<g mask="url(#mask0_704_31583)">
<path fill-rule="evenodd" clip-rule="evenodd" d="M0 6.66667H28V0H0V6.66667Z" fill="#E41D33"/>
<path fill-rule="evenodd" clip-rule="evenodd" d="M0 19.9999H28V13.3333H0V19.9999Z" fill="#262626"/>
<path d="M11.3335 8.33301H11.7935L12.3687 9.48242L12.6528 10.0508L12.9585 9.49414L12.9595 9.49121C12.9606 9.48925 12.963 9.48656 12.9653 9.48242C12.9702 9.47383 12.977 9.46026 12.9868 9.44336C13.0065 9.40956 13.0359 9.36077 13.0728 9.30176C13.147 9.18286 13.2515 9.02617 13.3716 8.87109C13.4932 8.71413 13.6231 8.56922 13.7485 8.4668C13.8821 8.35777 13.9655 8.33316 13.9995 8.33301C14.0568 8.33301 14.1506 8.36466 14.2808 8.46875C14.4063 8.56921 14.5335 8.71106 14.6499 8.86621C14.7648 9.01945 14.8614 9.17516 14.9302 9.29297C14.9643 9.35154 14.9914 9.4002 15.0093 9.43359C15.0182 9.45024 15.0255 9.46331 15.0298 9.47168C15.0318 9.47554 15.0328 9.47865 15.0337 9.48047L15.0347 9.48242L15.3335 10.0791L15.6313 9.48242L16.2056 8.33301H16.6665C16.8506 8.33301 16.9995 8.4829 16.9995 8.66699V10.7539C16.9995 10.9867 16.773 11.1378 16.5679 11.0732L16.4819 11.0312L15.5181 10.3896L15.4341 10.333H14.3335V11.333C14.3335 11.5171 14.1836 11.667 13.9995 11.667C13.8156 11.6668 13.6665 11.517 13.6665 11.333V10.333H12.5659L12.4819 10.3896L11.5181 11.0312C11.2965 11.1789 10.9995 11.0201 10.9995 10.7539V8.66699C10.9995 8.4829 11.1494 8.33301 11.3335 8.33301Z" fill="#F4B32E" fill-opacity="0.25" stroke="#C6A846" stroke-width="0.666667"/>
</g>
</svg>
