<svg width="28" height="20" viewBox="0 0 28 20" fill="none" xmlns="http://www.w3.org/2000/svg">
<rect width="28" height="20" rx="2" fill="white"/>
<mask id="mask0_704_31589" style="mask-type:luminance" maskUnits="userSpaceOnUse" x="0" y="0" width="28" height="20">
<rect width="28" height="20" rx="2" fill="white"/>
</mask>
<g mask="url(#mask0_704_31589)">
<path fill-rule="evenodd" clip-rule="evenodd" d="M28 0V10H0V0H28Z" fill="#29C53F"/>
<path fill-rule="evenodd" clip-rule="evenodd" d="M28 10V20.6667H0V10H28Z" fill="#579DED"/>
<path fill-rule="evenodd" clip-rule="evenodd" d="M0 20L28 10L0 0V20Z" fill="#F42D56"/>
<path d="M8.66699 6.00024C10.876 6.00042 12.667 7.79121 12.667 10.0002C12.6668 12.2091 10.8759 14.0001 8.66699 14.0002C6.45796 14.0002 4.66717 12.2092 4.66699 10.0002C4.66699 7.79111 6.45785 6.00024 8.66699 6.00024Z" stroke="#FFC63C" stroke-width="1.33333"/>
<path fill-rule="evenodd" clip-rule="evenodd" d="M8.00016 9.33333C8.36835 9.33333 8.66683 9.03486 8.66683 8.66667C8.66683 8.29848 8.36835 8 8.00016 8C7.63197 8 7.3335 8.29848 7.3335 8.66667C7.3335 9.03486 7.63197 9.33333 8.00016 9.33333Z" fill="#FFC63C"/>
<path fill-rule="evenodd" clip-rule="evenodd" d="M9.33317 10.0001C9.70136 10.0001 9.99984 9.7016 9.99984 9.33341C9.99984 8.96522 9.70136 8.66675 9.33317 8.66675C8.96498 8.66675 8.6665 8.96522 8.6665 9.33341C8.6665 9.7016 8.96498 10.0001 9.33317 10.0001Z" fill="#FFC63C"/>
<path fill-rule="evenodd" clip-rule="evenodd" d="M8.66667 8.66659C9.03486 8.66659 9.33333 8.36811 9.33333 7.99992C9.33333 7.63173 9.03486 7.33325 8.66667 7.33325C8.29848 7.33325 8 7.63173 8 7.99992C8 8.36811 8.29848 8.66659 8.66667 8.66659Z" fill="#FFC63C"/>
<path fill-rule="evenodd" clip-rule="evenodd" d="M8.00016 10.6666C8.36835 10.6666 8.66683 10.3681 8.66683 9.99992C8.66683 9.63173 8.36835 9.33325 8.00016 9.33325C7.63197 9.33325 7.3335 9.63173 7.3335 9.99992C7.3335 10.3681 7.63197 10.6666 8.00016 10.6666Z" fill="#FFC63C"/>
<path fill-rule="evenodd" clip-rule="evenodd" d="M9.33317 11.3333C9.70136 11.3333 9.99984 11.0349 9.99984 10.6667C9.99984 10.2985 9.70136 10 9.33317 10C8.96498 10 8.6665 10.2985 8.6665 10.6667C8.6665 11.0349 8.96498 11.3333 9.33317 11.3333Z" fill="#FFC63C"/>
<path fill-rule="evenodd" clip-rule="evenodd" d="M8.00016 12.0001C8.36835 12.0001 8.66683 11.7016 8.66683 11.3334C8.66683 10.9652 8.36835 10.6667 8.00016 10.6667C7.63197 10.6667 7.3335 10.9652 7.3335 11.3334C7.3335 11.7016 7.63197 12.0001 8.00016 12.0001Z" fill="#FFC63C"/>
<path fill-rule="evenodd" clip-rule="evenodd" d="M9.33317 12.6666C9.70136 12.6666 9.99984 12.3681 9.99984 11.9999C9.99984 11.6317 9.70136 11.3333 9.33317 11.3333C8.96498 11.3333 8.6665 11.6317 8.6665 11.9999C8.6665 12.3681 8.96498 12.6666 9.33317 12.6666Z" fill="#FFC63C"/>
</g>
</svg>
