<svg width="28" height="20" viewBox="0 0 28 20" fill="none" xmlns="http://www.w3.org/2000/svg">
<rect width="28" height="20" rx="2" fill="white"/>
<mask id="mask0_704_31629" style="mask-type:luminance" maskUnits="userSpaceOnUse" x="0" y="0" width="28" height="20">
<rect width="28" height="20" rx="2" fill="white"/>
</mask>
<g mask="url(#mask0_704_31629)">
<path fill-rule="evenodd" clip-rule="evenodd" d="M0 6.66667H28V0H0V6.66667Z" fill="#20AA46"/>
<path fill-rule="evenodd" clip-rule="evenodd" d="M0 19.9999H28V13.3333H0V19.9999Z" fill="#E92F3B"/>
<path fill-rule="evenodd" clip-rule="evenodd" d="M0 13.3334H28V6.66675H0V13.3334Z" fill="#FADF50"/>
<path fill-rule="evenodd" clip-rule="evenodd" d="M14.0002 14.6666C16.5775 14.6666 18.6668 12.5772 18.6668 9.99992C18.6668 7.42259 16.5775 5.33325 14.0002 5.33325C11.4228 5.33325 9.3335 7.42259 9.3335 9.99992C9.3335 12.5772 11.4228 14.6666 14.0002 14.6666Z" fill="#205CCA"/>
<path d="M14.4478 9.05444L14.5229 9.27905L14.7612 9.28198L16.1704 9.2937L15.0376 10.1335L14.8472 10.2751L14.9185 10.5017L15.3423 11.8474L14.1929 11.0291L13.9995 10.8904L13.8062 11.0291L12.6567 11.8474L13.0815 10.5017L13.1528 10.2751L12.9614 10.1335L11.8276 9.2937L13.2388 9.28198L13.4761 9.27905L13.5522 9.05444L13.9995 7.71558L14.4478 9.05444Z" stroke="#FFDB3D" stroke-width="0.666667"/>
</g>
</svg>
