<svg width="28" height="20" viewBox="0 0 28 20" fill="none" xmlns="http://www.w3.org/2000/svg">
<rect width="28" height="20" rx="2" fill="white"/>
<mask id="mask0_704_31637" style="mask-type:luminance" maskUnits="userSpaceOnUse" x="0" y="0" width="28" height="20">
<rect width="28" height="20" rx="2" fill="white"/>
</mask>
<g mask="url(#mask0_704_31637)">
<rect width="28" height="20" fill="#79CFF6"/>
<rect width="12" height="9.33333" fill="url(#paint0_linear_704_31637)"/>
<path fill-rule="evenodd" clip-rule="evenodd" d="M17.3335 9.99992C17.3335 7.99992 17.3335 5.33325 17.3335 5.33325H24.0002C24.0002 5.33325 24.0002 7.99992 24.0002 9.99992C24.0002 13.3333 20.6668 14.6666 20.6668 14.6666C20.6668 14.6666 17.3335 13.3333 17.3335 9.99992Z" fill="white"/>
<mask id="mask1_704_31637" style="mask-type:luminance" maskUnits="userSpaceOnUse" x="17" y="5" width="7" height="10">
<path fill-rule="evenodd" clip-rule="evenodd" d="M17.3335 9.99992C17.3335 7.99992 17.3335 5.33325 17.3335 5.33325H24.0002C24.0002 5.33325 24.0002 7.99992 24.0002 9.99992C24.0002 13.3333 20.6668 14.6666 20.6668 14.6666C20.6668 14.6666 17.3335 13.3333 17.3335 9.99992Z" fill="white"/>
</mask>
<g mask="url(#mask1_704_31637)">
<path fill-rule="evenodd" clip-rule="evenodd" d="M19.3333 7.99992C19.3333 8.36811 19.0349 8.66659 18.6667 8.66659C18.2985 8.66659 18 8.36811 18 7.99992C18 7.63173 18.2985 7.33325 18.6667 7.33325C19.0349 7.33325 19.3333 7.63173 19.3333 7.99992ZM23.3333 7.99992C23.3333 8.36811 23.0349 8.66659 22.6667 8.66659C22.2985 8.66659 22 8.36811 22 7.99992C22 7.63173 22.2985 7.33325 22.6667 7.33325C23.0349 7.33325 23.3333 7.63173 23.3333 7.99992Z" fill="#2A915C"/>
<path fill-rule="evenodd" clip-rule="evenodd" d="M17.3335 5.33325H24.0002V6.66659H21.3335V9.33325H24.0002V10.6666H21.3335V14.6666H20.0002V10.6666H17.3335V9.33325H20.0002V6.66659H17.3335V5.33325Z" fill="#EB1D43"/>
</g>
<path d="M12.333 0.495117C12.333 0.683588 12.2536 0.861844 12.1162 0.987305L12.0537 1.03809L7.66699 4.1709V5.17969L11.7646 8.69238L11.8301 8.75879C12.1237 9.10471 11.8861 9.66675 11.4043 9.66699C11.3179 9.66699 11.2328 9.64666 11.1562 9.6084L11.082 9.56348L6.55859 6.33301H5.42871L0.176758 9.61621L-0.333008 9.93457V8.49512L-0.193359 8.39551L4.33301 5.16211V4.15234L-0.216797 0.25293L-0.901367 -0.333008H0.773438L0.860352 -0.271484L5.43945 3H6.57129L11.8232 -0.282227L12.333 -0.601562V0.495117Z" fill="#DB1E36" stroke="white" stroke-width="0.666667"/>
<path fill-rule="evenodd" clip-rule="evenodd" d="M0 3.33333V6H4.66667V9.33333C4.66667 9.70152 4.96514 10 5.33333 10H6.66667C7.03486 10 7.33333 9.70152 7.33333 9.33333V6H12C12.3682 6 12.6667 5.70152 12.6667 5.33333V4C12.6667 3.63181 12.3682 3.33333 12 3.33333H7.33333V0H4.66667V3.33333H0Z" fill="url(#paint1_linear_704_31637)"/>
<path fill-rule="evenodd" clip-rule="evenodd" d="M0 4H5.33333V3.33333V0H6.66667V3.33333V4H12V5.33333H6.66667V6V9.33333H5.33333V6V5.33333H0V4Z" fill="#DB1E36"/>
</g>
<defs>
<linearGradient id="paint0_linear_704_31637" x1="0" y1="0" x2="0" y2="9.33333" gradientUnits="userSpaceOnUse">
<stop stop-color="#042C90"/>
<stop offset="1" stop-color="#00247E"/>
</linearGradient>
<linearGradient id="paint1_linear_704_31637" x1="0" y1="0" x2="0" y2="10" gradientUnits="userSpaceOnUse">
<stop stop-color="white"/>
<stop offset="1" stop-color="#F0F0F0"/>
</linearGradient>
</defs>
</svg>
