<svg width="28" height="20" viewBox="0 0 28 20" fill="none" xmlns="http://www.w3.org/2000/svg">
<rect width="28" height="20" rx="2" fill="white"/>
<mask id="mask0_704_33145" style="mask-type:luminance" maskUnits="userSpaceOnUse" x="0" y="0" width="28" height="20">
<rect width="28" height="20" rx="2" fill="white"/>
</mask>
<g mask="url(#mask0_704_33145)">
<rect width="28" height="20" fill="#07319C"/>
<path fill-rule="evenodd" clip-rule="evenodd" d="M17.3335 9.99992C17.3335 8.90618 17.3335 7.61306 17.3335 6.66574C17.3335 5.92936 17.9304 5.33325 18.6668 5.33325H22.6668C23.4032 5.33325 24.0002 5.92936 24.0002 6.66574C24.0002 7.61306 24.0002 8.90618 24.0002 9.99992C24.0002 13.3333 20.6668 14.6666 20.6668 14.6666C20.6668 14.6666 17.3335 13.3333 17.3335 9.99992Z" fill="#0072C4"/>
<mask id="mask1_704_33145" style="mask-type:luminance" maskUnits="userSpaceOnUse" x="17" y="5" width="7" height="10">
<path fill-rule="evenodd" clip-rule="evenodd" d="M17.3335 9.99992C17.3335 8.90618 17.3335 7.61306 17.3335 6.66574C17.3335 5.92936 17.9304 5.33325 18.6668 5.33325H22.6668C23.4032 5.33325 24.0002 5.92936 24.0002 6.66574C24.0002 7.61306 24.0002 8.90618 24.0002 9.99992C24.0002 13.3333 20.6668 14.6666 20.6668 14.6666C20.6668 14.6666 17.3335 13.3333 17.3335 9.99992Z" fill="white"/>
</mask>
<g mask="url(#mask1_704_33145)">
<path fill-rule="evenodd" clip-rule="evenodd" d="M18.8695 9.26762C18.1863 9.95769 19.5252 9.87017 19.5252 9.87017L20.4788 9.56484C20.4788 9.56484 20.9076 9.61671 21.197 9.70395C21.3887 9.76174 21.9221 9.99993 21.9221 9.99993C21.9221 9.99993 23.0488 9.775 22.6527 9.26762C22.2565 8.76025 19.5527 8.57756 18.8695 9.26762Z" fill="#005121"/>
<path fill-rule="evenodd" clip-rule="evenodd" d="M21.7103 8.55089C21.7377 8.54466 21.8017 8.54606 21.8256 8.57514C21.8631 8.6206 21.9398 8.60549 21.9773 8.6493C22.0146 8.69323 22.058 8.73374 22.058 8.79622C22.058 8.8587 22.0508 9.01362 22.0521 9.04765C22.054 9.10009 22.0631 9.10822 22.117 9.10682C22.182 9.10517 22.2718 9.10009 22.2746 8.98365C22.2765 8.9025 22.1958 8.85184 22.1722 8.5632C22.2076 8.53285 22.2392 8.50581 22.2274 8.46543C22.2155 8.42492 22.2943 8.4046 22.2865 8.34377C22.2785 8.28308 22.3651 8.24587 22.3297 8.17844C22.2943 8.11089 22.373 8.10758 22.3416 8.05349C22.31 7.99952 22.3927 7.95216 22.3573 7.90504C22.3219 7.85768 22.4045 7.81387 22.3613 7.75647C22.3179 7.69908 22.3848 7.6653 22.3416 7.62136C22.3691 7.57755 22.3454 7.4526 22.2588 7.38174C22.1722 7.31076 22.0502 7.27368 21.9792 7.24663C21.8472 7.19635 21.6011 7.21958 21.4278 7.2399C21.2545 7.26009 20.9315 7.28041 20.833 7.26695C20.7346 7.25349 20.5023 7.2399 20.3191 7.27025C20.2564 7.28066 20.1851 7.26187 20.1478 7.22644C20.1179 7.19812 20.1005 7.20117 20.073 7.20282C20.0454 7.20447 20.0296 7.19596 20.0158 7.16219C19.9915 7.10276 19.9371 7.14365 19.9115 7.06936C19.8943 7.01971 19.805 7.06263 19.7776 7.02047C19.7499 6.97831 19.7165 6.97323 19.6416 6.97831C19.6377 6.95292 19.5964 6.93438 19.5589 6.94111C19.5648 6.89895 19.5235 6.86517 19.4546 6.86682C19.4625 6.8145 19.366 6.774 19.3167 6.80612C19.2853 6.76727 19.2222 6.77565 19.2065 6.80612C19.173 6.76727 19.0666 6.77908 19.041 6.82123C18.9958 6.79596 18.9078 6.85806 18.9151 6.95635C18.917 6.98339 18.9188 7.01146 18.8736 7.02047C18.789 7.03736 18.7398 7.13184 18.6668 7.1453C18.594 7.15889 18.5211 7.1825 18.5074 7.22301C18.4936 7.26352 18.5192 7.30581 18.4916 7.326C18.4641 7.34631 18.5093 7.36485 18.5231 7.37489C18.5368 7.38504 18.5585 7.40193 18.5625 7.42555C18.5681 7.45908 18.6234 7.46911 18.6807 7.43228C18.7042 7.41717 18.7456 7.46276 18.8125 7.43063C18.8795 7.39863 18.9746 7.41552 18.9583 7.46784C18.9505 7.49311 18.9681 7.52016 18.9899 7.54543C19.0115 7.5707 19.0439 7.64701 19.0253 7.69057C18.9977 7.75469 19.0528 7.79025 19.0391 7.84752C19.0253 7.90504 19.0469 7.95736 19.0174 8.03495C18.9878 8.11254 18.9874 8.20968 19.0312 8.23749C19.0922 8.27635 19.0554 8.3533 19.1079 8.38606C19.1512 8.41298 19.1257 8.47889 19.2065 8.49908C19.2872 8.51939 19.2399 8.57336 19.3245 8.58517C19.4093 8.59698 19.4388 8.65781 19.5274 8.64422C19.5927 8.63431 19.6271 8.65019 19.6651 8.66517C19.673 8.71927 19.6555 8.91774 19.6515 8.96841C19.6479 9.01323 19.6239 9.08473 19.6239 9.12879C19.6239 9.15571 19.6791 9.16244 19.7422 9.16244C19.805 9.16244 19.8327 9.13717 19.8168 9.06631C19.8011 8.99533 19.7973 8.8225 19.8013 8.71444C19.8559 8.74073 19.9079 8.77755 19.9056 8.81819C19.9016 8.88396 19.9026 9.00206 19.8916 9.06289C19.8839 9.10682 19.8956 9.17603 19.8996 9.22162C19.9036 9.23838 20.0099 9.23673 20.0533 9.22162C20.0965 9.20638 20.0965 9.16587 20.0925 8.98187C20.0906 8.89082 19.994 8.79774 20.1162 8.75228C20.1754 8.73031 20.258 8.67965 20.2896 8.63254C20.321 8.58517 20.39 8.60371 20.4392 8.62746C20.4884 8.65108 20.5672 8.68714 20.6165 8.67127C20.6795 8.65108 20.7465 8.70162 20.8016 8.67127C20.8567 8.64092 20.9276 8.69323 20.9728 8.65616C21.0182 8.61895 21.097 8.65438 21.1305 8.61895C21.1639 8.58352 21.3017 8.63927 21.3511 8.59203C21.4002 8.54466 21.4672 8.60549 21.5125 8.57006C21.5244 8.56066 21.5385 8.55863 21.5539 8.55977C21.5521 8.63965 21.5371 8.76676 21.5342 8.80638C21.5306 8.85133 21.5066 8.92269 21.5066 8.96663C21.5066 8.99368 21.5617 9.00041 21.6247 9.00041C21.6878 9.00041 21.7154 8.97514 21.6996 8.90428C21.6838 8.83343 21.7065 8.65908 21.7103 8.55089Z" fill="#A3A3A3"/>
<path fill-rule="evenodd" clip-rule="evenodd" d="M18.5237 7.32012C18.5501 7.30094 18.5257 7.26107 18.5388 7.22272C18.552 7.1845 18.6218 7.16215 18.6916 7.14945C18.7614 7.13662 18.8085 7.04735 18.8897 7.03135C18.9329 7.02285 18.9311 6.99631 18.9292 6.97078C18.9224 6.87796 19.0065 6.81929 19.05 6.84329C19.0744 6.80329 19.1763 6.79212 19.2083 6.82881C19.2234 6.80012 19.2837 6.79212 19.314 6.82881C19.3611 6.79859 19.4535 6.83681 19.446 6.88621C19.512 6.88469 19.5516 6.91656 19.546 6.95643C19.5818 6.95008 19.6214 6.96761 19.6252 6.99148C19.6191 7.03072 19.7088 7.04075 19.6673 7.06615C19.631 7.08837 19.5965 7.07961 19.5551 7.04926C19.5138 7.01878 19.3759 7.04583 19.3562 7.06107C19.3365 7.07631 19.3148 7.08304 19.299 7.07123C19.2833 7.05942 19.246 7.04075 19.2282 7.04253C19.2104 7.04418 19.1731 7.04418 19.1513 7.00875C19.1297 6.97332 19.0745 6.96824 19.0648 6.9817C19.055 6.99516 19.0864 7.04418 19.118 7.06272C19.1494 7.08139 19.1337 7.11681 19.1711 7.137C19.1956 7.15034 19.1731 7.19605 19.1593 7.2231C19.1455 7.25015 19.0923 7.24164 19.0883 7.22145C19.0845 7.20126 19.0705 7.18767 19.0391 7.21802C19.0076 7.2485 18.9408 7.23999 18.9249 7.23161C18.9092 7.2231 18.8658 7.20799 18.8363 7.21637C18.8067 7.22488 18.8501 7.23834 18.8541 7.25015C18.858 7.26196 18.8067 7.26704 18.7772 7.26704C18.7477 7.26704 18.7378 7.2838 18.7556 7.28723C18.7734 7.29066 18.8421 7.29408 18.8698 7.2805C18.8974 7.26704 18.982 7.2805 18.99 7.30589C18.9978 7.33116 18.9408 7.34132 18.9071 7.33789C18.8577 7.33294 18.7851 7.35986 18.7497 7.36824C18.7143 7.37675 18.6197 7.35478 18.5823 7.36494C18.5449 7.37497 18.508 7.33523 18.5237 7.32012Z" fill="#A3A3A3"/>
<path fill-rule="evenodd" clip-rule="evenodd" d="M19.1572 7.52693C19.1218 7.54039 19.1336 7.5809 19.1652 7.59778C19.1967 7.61467 19.2675 7.6214 19.3129 7.61302C19.3581 7.60451 19.368 7.6181 19.3385 7.63499C19.3089 7.65175 19.3837 7.65518 19.3778 7.68223C19.372 7.70915 19.4053 7.70407 19.4369 7.70242C19.4684 7.70077 19.5098 7.68045 19.5452 7.66191C19.5806 7.64337 19.6062 7.65683 19.5727 7.68896C19.5394 7.72096 19.4271 7.76159 19.3385 7.75651C19.2498 7.75144 19.2025 7.77163 19.2222 7.80032C19.2419 7.82902 19.3364 7.8341 19.3856 7.81886C19.4349 7.80375 19.4271 7.8308 19.3896 7.84921C19.3521 7.86788 19.2989 7.86953 19.2538 7.86788C19.2084 7.86623 19.169 7.90509 19.2281 7.92693C19.2872 7.9489 19.3661 7.93544 19.3955 7.95397C19.4252 7.97251 19.5157 7.94382 19.5176 7.97594C19.5195 8.00794 19.492 8.01975 19.4388 8.01645C19.3856 8.01302 19.4013 8.03702 19.4409 8.0501C19.4763 8.06204 19.5394 8.06204 19.5727 8.05861C19.6062 8.05531 19.5964 8.08896 19.5629 8.10077C19.5295 8.11258 19.4212 8.12947 19.368 8.12782C19.3148 8.12617 19.3403 8.15994 19.4093 8.15994C19.62 8.15994 19.6909 8.06026 19.7441 7.99105C19.7702 7.95715 19.8209 7.93874 19.8327 7.95905C19.8446 7.97924 19.8465 7.98432 19.8229 8.00121C19.7992 8.0181 19.805 8.02826 19.8484 8.02991C19.8917 8.03156 19.9548 8.01975 19.9923 8.00972C20.0296 7.99956 20.1398 8.06344 20.0493 8.06534C19.8898 8.06877 19.6929 8.12617 19.628 8.14978C19.5629 8.1734 19.4545 8.21785 19.3877 8.21556C19.3385 8.21391 19.3186 8.23245 19.3385 8.25442C19.3581 8.27639 19.4212 8.27639 19.4566 8.26623C19.492 8.25607 19.4998 8.26623 19.4763 8.28642C19.4527 8.30674 19.3936 8.31512 19.3521 8.32197C19.3109 8.3287 19.2905 8.35512 19.3226 8.36578C19.3837 8.3861 19.3286 8.40464 19.372 8.4148C19.4152 8.42496 19.368 8.45696 19.4152 8.46712C19.4625 8.47728 19.4901 8.4722 19.5255 8.44858C19.561 8.42496 19.5806 8.41137 19.6181 8.4148C19.6555 8.41823 19.6812 8.40121 19.7028 8.37594C19.7244 8.35067 19.7973 8.30509 19.8209 8.32705C19.8446 8.34902 19.8938 8.30839 19.9037 8.33036C19.9135 8.35232 19.9548 8.33886 19.9647 8.36921C19.9755 8.40299 20.0218 8.40972 20.0533 8.39791C20.0847 8.3861 20.1104 8.3574 20.1104 8.31512C20.1104 8.27296 20.1222 8.25607 20.1341 8.30166C20.1458 8.34724 20.1892 8.3607 20.2108 8.33886C20.2324 8.3169 20.2403 8.24096 20.2246 8.20553C20.2089 8.16997 20.2068 8.12439 20.2226 8.11601C20.2384 8.10763 20.2758 8.18521 20.2915 8.21899C20.3074 8.25277 20.3486 8.24261 20.3506 8.20883C20.3526 8.17505 20.3901 8.15817 20.4176 8.18356C20.4452 8.20883 20.4295 8.29328 20.4373 8.33378C20.4452 8.37429 20.5219 8.32363 20.5299 8.33709C20.5378 8.35067 20.5672 8.35397 20.5791 8.32528C20.5909 8.29658 20.6185 8.27131 20.6342 8.2882C20.6501 8.30509 20.6736 8.33378 20.6834 8.36578C20.6933 8.39791 20.7287 8.4148 20.7504 8.38102C20.772 8.34724 20.7878 8.28147 20.78 8.23575C20.772 8.19029 20.7859 8.16159 20.8055 8.18521C20.8252 8.20883 20.8232 8.27296 20.8252 8.32528C20.8272 8.37759 20.8921 8.37264 20.8921 8.29493C20.8921 8.2595 20.9118 8.25277 20.9178 8.27296C20.9237 8.29328 20.9237 8.32705 20.9296 8.34217C20.9441 8.37963 20.9946 8.35905 21.0004 8.33378C21.0064 8.30839 20.9966 8.21721 20.9847 8.17683C20.9729 8.1362 20.9966 8.10763 21.0163 8.12947C21.036 8.15144 21.0398 8.20883 21.0438 8.27296C21.0477 8.33709 21.089 8.34051 21.1108 8.32197C21.1324 8.30331 21.1324 8.24934 21.1226 8.21048C21.1127 8.17175 21.1443 8.17175 21.1581 8.19537C21.1718 8.21899 21.1955 8.20375 21.1915 8.18521C21.1877 8.16667 21.2072 8.14978 21.2269 8.17505C21.2466 8.20045 21.2407 8.25785 21.2309 8.30331C21.221 8.34902 21.2801 8.34382 21.3077 8.30509C21.3352 8.26623 21.3215 8.15994 21.2979 8.12617C21.2742 8.09239 21.2763 8.04845 21.2899 8.00972C21.3038 7.97086 21.3295 7.96909 21.3314 7.9861C21.3333 8.00286 21.3452 8.03156 21.3668 8.05353C21.3884 8.0755 21.4003 8.07893 21.4041 8.04502C21.4081 8.01137 21.4278 8.01975 21.4357 8.04502C21.4437 8.07042 21.4573 8.09061 21.477 8.06877C21.4967 8.0468 21.5224 8.06369 21.5066 8.09747C21.4908 8.13124 21.4908 8.16159 21.5026 8.19537C21.5145 8.22915 21.5558 8.22407 21.5598 8.18521C21.568 8.10445 21.5795 8.15817 21.5893 8.19359C21.5991 8.22915 21.6287 8.22737 21.6346 8.20718C21.6406 8.18686 21.6465 8.18191 21.6465 8.20375C21.6465 8.22572 21.6563 8.24426 21.6819 8.24426C21.7075 8.24426 21.7016 8.20045 21.7133 8.1734C21.7252 8.14636 21.7468 8.18356 21.7764 8.24591C21.8059 8.30839 21.8275 8.24934 21.8966 8.39118C21.9247 8.44896 21.9655 8.39956 21.9635 8.37937C21.9615 8.35905 21.9674 8.34559 22.0009 8.34559C22.0344 8.34559 22.0619 8.33886 22.0502 8.3169C22.0384 8.29493 22.0462 8.25442 22.0443 8.20883C22.0424 8.16324 22.0481 8.13797 22.0541 8.16324C22.06 8.18851 22.0797 8.22407 22.1111 8.24261C22.1426 8.26115 22.1643 8.21048 22.1386 8.17848C22.1132 8.14636 22.0778 8.07042 22.0797 8.00629C22.0812 7.95905 22.1032 7.97417 22.1032 8.00794C22.1032 8.04172 22.1229 8.10255 22.1526 8.11601C22.1821 8.12947 22.1939 8.06699 22.1801 8.03499C22.1664 8.00286 22.1585 7.95905 22.188 7.95055C22.2175 7.94217 22.1801 7.90674 22.1545 7.88134C22.1289 7.85607 22.1132 7.8308 22.1585 7.83245C22.2037 7.8341 22.1664 7.8054 22.1446 7.78686C22.1229 7.76832 22.0856 7.73112 22.1446 7.7362C22.2037 7.74128 22.1841 7.71093 22.1604 7.69404C22.1367 7.67715 22.1229 7.64502 22.1643 7.6468C22.2058 7.64845 22.2312 7.62813 22.2274 7.61302C22.2123 7.55448 22.1132 7.48642 22.0521 7.4341C21.9911 7.38178 21.8926 7.32947 21.8394 7.32096C21.7862 7.31245 21.7843 7.34636 21.7981 7.36655C21.8118 7.38674 21.8394 7.40032 21.8434 7.38001C21.8472 7.35982 21.8886 7.38178 21.9083 7.4087C21.928 7.43575 21.9949 7.46953 22.0364 7.49988C22.0778 7.53023 21.9812 7.51512 21.9339 7.47461C21.9069 7.45137 21.9102 7.47956 21.9458 7.51169C21.9812 7.54382 21.9358 7.55728 21.8985 7.53023C21.861 7.50331 21.7646 7.42737 21.7035 7.37836C21.6425 7.32947 21.6326 7.34128 21.6306 7.37328C21.6287 7.4054 21.6504 7.42737 21.6898 7.45429C21.7292 7.48134 21.7784 7.5235 21.8158 7.5522C21.8532 7.5809 21.8218 7.59944 21.7981 7.57912C21.7744 7.55893 21.6938 7.50331 21.6465 7.46445C21.5991 7.42559 21.5558 7.40705 21.5264 7.41213C21.4967 7.41721 21.4988 7.44591 21.5342 7.47626C21.5696 7.50661 21.613 7.56401 21.613 7.59778C21.613 7.63156 21.5815 7.65518 21.5656 7.59448C21.5499 7.53366 21.4751 7.4628 21.42 7.4087C21.3649 7.35474 21.3096 7.34458 21.2683 7.34801C21.2269 7.35131 21.2289 7.39182 21.2289 7.42394C21.2289 7.45594 21.2013 7.4374 21.1994 7.41378C21.1975 7.39017 21.1659 7.36997 21.1481 7.37163C21.1305 7.37328 21.1364 7.42229 21.1305 7.44426C21.1246 7.4661 21.097 7.48642 21.097 7.43575C21.097 7.38509 21.032 7.35982 21.0044 7.35804C20.9769 7.35639 20.9512 7.36655 20.965 7.38851C20.9788 7.41036 20.9729 7.46953 20.9631 7.50331C20.9532 7.53696 20.9237 7.47791 20.9178 7.41544C20.9118 7.35309 20.8194 7.30915 20.7544 7.32769C20.6893 7.34636 20.7386 7.38674 20.7268 7.42559C20.7149 7.46445 20.6972 7.42902 20.6912 7.38851C20.6855 7.34801 20.6539 7.32261 20.6106 7.33277C20.5672 7.34293 20.5378 7.36312 20.5397 7.39017C20.5416 7.41721 20.5416 7.44083 20.5318 7.48464C20.5219 7.52858 20.5043 7.50661 20.5062 7.47791C20.5083 7.44921 20.4984 7.40197 20.4884 7.37493C20.4786 7.34801 20.4628 7.37328 20.4668 7.40705C20.4708 7.44083 20.4609 7.51842 20.4452 7.56578C20.4295 7.61302 20.4058 7.61467 20.4176 7.55055C20.4295 7.48642 20.3998 7.39182 20.3704 7.34801C20.3492 7.31664 20.3015 7.30585 20.3015 7.34966C20.3015 7.39359 20.3152 7.42559 20.3506 7.45772C20.3861 7.48972 20.3585 7.56909 20.3231 7.61137C20.2875 7.65353 20.2896 7.5927 20.3015 7.54712C20.3132 7.50153 20.2483 7.48642 20.2226 7.47791C20.197 7.46953 20.2502 7.42394 20.2621 7.36312C20.2678 7.33315 20.26 7.31423 20.2364 7.31245C20.2127 7.3108 20.1498 7.3682 20.1222 7.41036C20.1301 7.36655 20.1222 7.32769 20.0985 7.32769C20.0749 7.32769 20.0493 7.36997 20.0317 7.40032C20.0139 7.43067 19.9961 7.41378 20.0139 7.38178C20.0317 7.34966 20.0591 7.26356 20.0237 7.24502C19.9883 7.22648 19.9567 7.30242 19.9194 7.28883C19.8982 7.28121 19.9272 7.23321 19.9391 7.21124C19.9508 7.18928 19.9272 7.17239 19.8741 7.2129C19.8209 7.25353 19.7973 7.31931 19.7834 7.35982C19.7698 7.40032 19.6752 7.4661 19.624 7.50153C19.5727 7.53696 19.5511 7.5235 19.5767 7.50826C19.6024 7.49315 19.6535 7.44591 19.6791 7.42737C19.7047 7.4087 19.6929 7.39778 19.6437 7.42978C19.5945 7.46191 19.5049 7.5202 19.4132 7.54039C19.3594 7.55232 19.3521 7.54217 19.4053 7.52693C19.4585 7.51169 19.5806 7.43905 19.6102 7.4054C19.6287 7.3842 19.5806 7.40197 19.557 7.40705C19.5335 7.41213 19.5138 7.4054 19.561 7.38851C19.6081 7.37163 19.7579 7.23829 19.7895 7.18928C19.8209 7.14039 19.7933 7.12172 19.7736 7.1235C19.7539 7.12515 19.7264 7.13696 19.7323 7.11677C19.7382 7.09645 19.7244 7.0694 19.6988 7.07791C19.6732 7.08629 19.6752 7.13531 19.6653 7.16223C19.6555 7.18928 19.6003 7.22483 19.5649 7.22483C19.5295 7.22483 19.4803 7.23156 19.4428 7.25683C19.4053 7.2821 19.3877 7.25848 19.4053 7.23829C19.4231 7.21797 19.4625 7.2129 19.5019 7.21124C19.5413 7.20959 19.5846 7.20451 19.6181 7.17239C19.6515 7.14039 19.6535 7.11499 19.628 7.11334C19.6024 7.11169 19.5589 7.08299 19.5452 7.07118C19.4752 7.01112 19.3471 7.0948 19.297 7.14369C19.2695 7.17074 19.1749 7.24845 19.1455 7.26864C19.1158 7.28883 19.1277 7.31753 19.1769 7.2788C19.2262 7.23994 19.2419 7.26699 19.1967 7.29569C19.1512 7.32439 19.1179 7.36655 19.1336 7.38178C19.1493 7.3969 19.2104 7.37836 19.2438 7.35982C19.2773 7.34128 19.2932 7.38674 19.2104 7.40197C19.1548 7.41226 19.1354 7.43182 19.1789 7.4341C19.2124 7.43575 19.2635 7.42229 19.3109 7.39867C19.3581 7.37493 19.3955 7.38851 19.3561 7.41213C19.3167 7.43575 19.2301 7.46788 19.1868 7.46788C19.1505 7.46788 19.1927 7.51347 19.1572 7.52693Z" fill="white"/>
<path fill-rule="evenodd" clip-rule="evenodd" d="M19.3854 7.14968C19.4328 7.10035 19.4741 7.07875 19.5174 7.11422C19.5566 7.14635 19.5608 7.16035 19.5115 7.14968C19.4623 7.13902 19.4288 7.14968 19.3993 7.18155C19.3697 7.21355 19.3362 7.20102 19.3854 7.14968Z" fill="#A3A3A3"/>
<path fill-rule="evenodd" clip-rule="evenodd" d="M18.6057 7.2749C18.6411 7.23943 18.6981 7.23943 18.7238 7.2005C18.7494 7.16143 18.7769 7.1757 18.7454 7.2129C18.714 7.2501 18.6529 7.2573 18.6273 7.28383C18.6017 7.31037 18.5879 7.29263 18.6057 7.2749Z" fill="#A3A3A3"/>
<path fill-rule="evenodd" clip-rule="evenodd" d="M18.8264 7.13938C18.8478 7.13645 18.8894 7.11098 18.915 7.08085C18.9406 7.05072 18.9958 7.04005 19.0291 7.07552C19.0626 7.11098 19.0803 7.12338 19.0981 7.13058C19.1158 7.13765 19.1158 7.16072 19.0882 7.16765C19.0606 7.17485 19.0233 7.18018 19.0036 7.17125C18.9839 7.16245 18.9543 7.15538 18.9307 7.16072C18.907 7.16592 18.8972 7.15538 18.9169 7.14645C18.9366 7.13765 18.9602 7.11098 18.972 7.10032C18.9839 7.08978 19.0153 7.09858 18.9977 7.10925C18.9799 7.11992 18.9878 7.14285 19.0055 7.15178C19.0233 7.16072 19.0587 7.16072 19.0744 7.14472C19.0509 7.12165 19.0115 7.09152 18.9958 7.08272C18.9799 7.07378 18.9661 7.07018 18.9464 7.09152C18.9267 7.11285 18.8795 7.16418 18.8343 7.16245C18.7889 7.16072 18.8008 7.14285 18.8264 7.13938Z" fill="#A3A3A3"/>
<path fill-rule="evenodd" clip-rule="evenodd" d="M20.0707 7.45733C20.0532 7.48173 20.0372 7.51319 20.0353 7.53799C20.0333 7.56279 20.056 7.57973 20.0588 7.54866C20.0618 7.51759 20.0648 7.49906 20.0893 7.47599C20.1141 7.45293 20.0904 7.42986 20.0707 7.45733Z" fill="#A3A3A3"/>
<path fill-rule="evenodd" clip-rule="evenodd" d="M19.8299 7.45673C19.8504 7.44847 19.885 7.42927 19.9018 7.41153C19.9185 7.39393 19.9293 7.4054 19.9126 7.42487C19.8958 7.44433 19.8575 7.4674 19.8397 7.47273C19.8221 7.47807 19.8083 7.46567 19.8299 7.45673Z" fill="#A3A3A3"/>
<path fill-rule="evenodd" clip-rule="evenodd" d="M19.86 7.55538C19.8317 7.58941 19.7202 7.6703 19.6867 7.68541C19.6532 7.70065 19.6651 7.72262 19.7026 7.71081C19.675 7.73265 19.6138 7.76821 19.5746 7.77824C19.5352 7.7884 19.5272 7.81875 19.5863 7.80021C19.6454 7.78167 19.728 7.73265 19.7497 7.71081C19.7715 7.68884 19.7439 7.67868 19.7774 7.65506C19.8109 7.63144 19.8728 7.58827 19.8817 7.57062C19.8955 7.5437 19.8797 7.53176 19.86 7.55538Z" fill="#A3A3A3"/>
<path fill-rule="evenodd" clip-rule="evenodd" d="M19.7382 7.83076C19.7804 7.81019 19.8593 7.73742 19.8819 7.69565C19.8957 7.67038 19.9233 7.67368 19.9016 7.71253C19.88 7.75139 19.7993 7.8206 19.7717 7.83914C19.7441 7.85768 19.6929 7.8526 19.7382 7.83076Z" fill="#A3A3A3"/>
<path fill-rule="evenodd" clip-rule="evenodd" d="M20.6342 7.43057C20.6226 7.45432 20.6204 7.50994 20.6244 7.53686C20.6282 7.5639 20.652 7.58422 20.648 7.54371C20.6441 7.50321 20.6441 7.4627 20.6577 7.45089C20.6717 7.43895 20.6539 7.39006 20.6342 7.43057Z" fill="#A3A3A3"/>
<path fill-rule="evenodd" clip-rule="evenodd" d="M20.8747 7.53012C20.8947 7.54853 20.9042 7.63488 20.9022 7.66688C20.9003 7.69901 20.9338 7.69901 20.9317 7.65342C20.9298 7.60784 20.9258 7.55044 20.9082 7.52009C20.8904 7.48961 20.8471 7.50485 20.8747 7.53012Z" fill="#A3A3A3"/>
<path fill-rule="evenodd" clip-rule="evenodd" d="M21.0849 7.58582C21.0971 7.60792 21.1125 7.64995 21.1125 7.6803C21.1125 7.71077 21.1381 7.69719 21.14 7.66176C21.142 7.62633 21.1362 7.59598 21.1224 7.57236C21.1086 7.54874 21.0671 7.55369 21.0849 7.58582Z" fill="#A3A3A3"/>
<path fill-rule="evenodd" clip-rule="evenodd" d="M21.2151 7.55945C21.2043 7.53225 21.1875 7.50799 21.1755 7.51159C21.1638 7.51519 21.1717 7.53999 21.1875 7.56652C21.2031 7.59319 21.2268 7.58959 21.2151 7.55945Z" fill="#A3A3A3"/>
<path fill-rule="evenodd" clip-rule="evenodd" d="M20.392 7.74793C20.386 7.81866 20.3486 7.88126 20.3034 7.90323C20.258 7.9252 20.2659 7.96062 20.321 7.9252C20.3763 7.88977 20.4176 7.82894 20.4295 7.77497C20.4412 7.72088 20.396 7.70069 20.392 7.74793Z" fill="#A3A3A3"/>
<path fill-rule="evenodd" clip-rule="evenodd" d="M20.2932 7.71603C20.2696 7.73965 20.2559 7.79032 20.2559 7.82905C20.2559 7.86791 20.2716 7.83921 20.2756 7.81724C20.2796 7.79527 20.2873 7.76492 20.3071 7.75476C20.3267 7.74461 20.3169 7.69242 20.2932 7.71603Z" fill="#A3A3A3"/>
<path fill-rule="evenodd" clip-rule="evenodd" d="M21.9987 7.76489C22.0194 7.79905 22.0499 7.85441 22.0597 7.88641C22.0696 7.91854 22.0459 7.92692 22.0381 7.89822C22.0301 7.86953 21.9927 7.8054 21.979 7.78343C21.9652 7.76159 21.975 7.72603 21.9987 7.76489Z" fill="#A3A3A3"/>
<path d="M16 9.33333C16 9.33333 18.2679 10.0071 18.6507 10.0071C18.7583 10.0071 20.2273 9.67023 20.6677 9.67023C20.8324 9.67023 22.353 9.90101 22.75 10.0071C23.1471 10.1132 25.3354 9.33333 25.3354 9.33333" stroke="white" stroke-width="0.666667" stroke-linecap="round" stroke-linejoin="round"/>
<path d="M16 10.6666C16 10.6666 18.2679 11.3404 18.6507 11.3404C18.7583 11.3404 20.2273 11.0035 20.6677 11.0035C20.8324 11.0035 22.353 11.2343 22.75 11.3404C23.1471 11.4465 25.3354 10.6666 25.3354 10.6666" stroke="white" stroke-width="0.666667" stroke-linecap="round" stroke-linejoin="round"/>
<path d="M16 13.3333C16 13.3333 18.2679 14.0071 18.6507 14.0071C18.7583 14.0071 19.634 13.4619 20.6677 13.4619C21.7014 13.4619 22.353 13.901 22.75 14.0071C23.1471 14.1132 25.3354 13.3333 25.3354 13.3333L32.5128 14.4813" stroke="white" stroke-width="1.33333" stroke-linecap="round" stroke-linejoin="round"/>
</g>
<path d="M18.6665 5.66626H22.6665C23.2189 5.66626 23.6663 6.11348 23.6665 6.66528V10.0002C23.6664 11.5425 22.8992 12.6256 22.1108 13.3352C21.7163 13.6903 21.32 13.9481 21.0229 14.1165C20.8749 14.2003 20.7519 14.2612 20.6675 14.301H20.6655C20.581 14.2612 20.4581 14.2003 20.3101 14.1165C20.013 13.9481 19.6176 13.6902 19.2231 13.3352C18.4347 12.6256 17.6666 11.5427 17.6665 10.0002V6.66528C17.6667 6.11359 18.1142 5.66644 18.6665 5.66626Z" stroke="white" stroke-width="0.666667"/>
<mask id="mask2_704_33145" style="mask-type:luminance" maskUnits="userSpaceOnUse" x="17" y="5" width="7" height="10">
<path d="M18.6665 5.66626H22.6665C23.2189 5.66626 23.6663 6.11348 23.6665 6.66528V10.0002C23.6664 11.5425 22.8992 12.6256 22.1108 13.3352C21.7163 13.6903 21.32 13.9481 21.0229 14.1165C20.8749 14.2003 20.7519 14.2612 20.6675 14.301H20.6655C20.581 14.2612 20.4581 14.2003 20.3101 14.1165C20.013 13.9481 19.6176 13.6902 19.2231 13.3352C18.4347 12.6256 17.6666 11.5427 17.6665 10.0002V6.66528C17.6667 6.11359 18.1142 5.66644 18.6665 5.66626Z" fill="white" stroke="white" stroke-width="0.666667"/>
</mask>
<g mask="url(#mask2_704_33145)">
</g>
<path d="M12.333 0.495117C12.333 0.683588 12.2536 0.861844 12.1162 0.987305L12.0537 1.03809L7.66699 4.1709V5.17969L11.7646 8.69238L11.8301 8.75879C12.1237 9.10471 11.8861 9.66675 11.4043 9.66699C11.3179 9.66699 11.2328 9.64666 11.1562 9.6084L11.082 9.56348L6.55859 6.33301H5.42871L0.176758 9.61621L-0.333008 9.93457V8.49512L-0.193359 8.39551L4.33301 5.16211V4.15234L-0.216797 0.25293L-0.901367 -0.333008H0.773438L0.860352 -0.271484L5.43945 3H6.57129L11.8232 -0.282227L12.333 -0.601562V0.495117Z" fill="#DB1E36" stroke="white" stroke-width="0.666667"/>
<path fill-rule="evenodd" clip-rule="evenodd" d="M0 3.33333V6H4.66667V9.33333C4.66667 9.70152 4.96514 10 5.33333 10H6.66667C7.03486 10 7.33333 9.70152 7.33333 9.33333V6H12C12.3682 6 12.6667 5.70152 12.6667 5.33333V4C12.6667 3.63181 12.3682 3.33333 12 3.33333H7.33333V0H4.66667V3.33333H0Z" fill="white"/>
<path fill-rule="evenodd" clip-rule="evenodd" d="M0 4H5.33333V3.33333V0H6.66667V3.33333V4H12V5.33333H6.66667V6V9.33333H5.33333V6V5.33333H0V4Z" fill="#DB1E36"/>
</g>
</svg>
