<svg width="28" height="20" viewBox="0 0 28 20" fill="none" xmlns="http://www.w3.org/2000/svg">
<rect width="28" height="20" rx="2" fill="white"/>
<mask id="mask0_704_31762" style="mask-type:luminance" maskUnits="userSpaceOnUse" x="0" y="0" width="28" height="20">
<rect width="28" height="20" rx="2" fill="white"/>
</mask>
<g mask="url(#mask0_704_31762)">
<rect width="28" height="20" fill="#E42235"/>
<rect x="2.6665" y="2.66675" width="22.6667" height="14.6667" fill="#079B77"/>
<mask id="mask1_704_31762" style="mask-type:luminance" maskUnits="userSpaceOnUse" x="2" y="2" width="24" height="16">
<rect x="2.6665" y="2.66675" width="22.6667" height="14.6667" fill="white"/>
</mask>
<g mask="url(#mask1_704_31762)">
<path fill-rule="evenodd" clip-rule="evenodd" d="M4.39322 10.1319C4.77072 10.736 5.3127 11.1348 5.8175 11.2372C6.09541 11.2935 5.58658 10.019 5.80832 9.88042C5.99751 9.7622 6.90777 10.8221 6.98747 10.601C7.17087 10.0922 7.06268 9.37173 6.65468 8.71879C6.06935 7.78206 6.0465 8.40031 4.46411 7.72925C4.62956 8.68893 3.80789 9.19518 4.39322 10.1319Z" fill="#FFD938"/>
<path fill-rule="evenodd" clip-rule="evenodd" d="M13.9998 10.0001L25.3332 2.66675H2.6665L13.9998 10.0001ZM13.9998 10.0001L2.6665 17.3334H25.3332L13.9998 10.0001Z" fill="#FFD93B"/>
<path fill-rule="evenodd" clip-rule="evenodd" d="M13.9998 13.3334C15.8408 13.3334 17.3332 11.841 17.3332 10.0001C17.3332 8.15913 15.8408 6.66675 13.9998 6.66675C12.1589 6.66675 10.6665 8.15913 10.6665 10.0001C10.6665 11.841 12.1589 13.3334 13.9998 13.3334Z" fill="url(#paint0_linear_704_31762)"/>
<path fill-rule="evenodd" clip-rule="evenodd" d="M13.9997 11.0286L12.4322 12.1575L13.0216 10.318L11.4635 9.17612L13.3952 9.16817L13.9997 7.3335L14.6042 9.16817L16.5358 9.17612L14.9777 10.318L15.5671 12.1575L13.9997 11.0286Z" fill="#FFD938"/>
</g>
</g>
<defs>
<linearGradient id="paint0_linear_704_31762" x1="10.6665" y1="6.66675" x2="10.6665" y2="13.3334" gradientUnits="userSpaceOnUse">
<stop stop-color="#E21C30"/>
<stop offset="1" stop-color="#CE1225"/>
</linearGradient>
</defs>
</svg>
