<svg width="28" height="20" viewBox="0 0 28 20" fill="none" xmlns="http://www.w3.org/2000/svg">
<rect x="0.25" y="0.25" width="27.5" height="19.5" rx="1.75" fill="white" stroke="#F5F5F5" stroke-width="0.5"/>
<mask id="mask0_704_31793" style="mask-type:luminance" maskUnits="userSpaceOnUse" x="0" y="0" width="28" height="20">
<rect x="0.25" y="0.25" width="27.5" height="19.5" rx="1.75" fill="white" stroke="white" stroke-width="0.5"/>
</mask>
<g mask="url(#mask0_704_31793)">
<path fill-rule="evenodd" clip-rule="evenodd" d="M0 19.9999H28V13.3333H0V19.9999Z" fill="#E34F4F"/>
<path fill-rule="evenodd" clip-rule="evenodd" d="M9.3335 13.3333H17.3335V8H9.3335V13.3333Z" fill="#E34F4F"/>
<path fill-rule="evenodd" clip-rule="evenodd" d="M10.6665 13.3333H11.9998V12H10.6665V13.3333Z" fill="#181A1A"/>
<path fill-rule="evenodd" clip-rule="evenodd" d="M14.6665 13.3333H15.9998V12H14.6665V13.3333Z" fill="#181A1A"/>
<path fill-rule="evenodd" clip-rule="evenodd" d="M9.3335 8.00008H10.6668V6.66675H9.3335V8.00008Z" fill="#181A1A"/>
<path fill-rule="evenodd" clip-rule="evenodd" d="M13.3335 8.00008H14.6668V6.66675H13.3335V8.00008Z" fill="#181A1A"/>
<path fill-rule="evenodd" clip-rule="evenodd" d="M12 8.00008H13.3333V6.66675H12V8.00008Z" fill="#181A1A"/>
<path fill-rule="evenodd" clip-rule="evenodd" d="M16 8.00008H17.3333V6.66675H16V8.00008Z" fill="#181A1A"/>
<path fill-rule="evenodd" clip-rule="evenodd" d="M9.3335 6.66659H10.6668V5.33325H9.3335V6.66659Z" fill="#E34F4F"/>
<path fill-rule="evenodd" clip-rule="evenodd" d="M13.3335 6.66659H14.6668V5.33325H13.3335V6.66659Z" fill="#E34F4F"/>
<path fill-rule="evenodd" clip-rule="evenodd" d="M12 6.66659H13.3333V5.33325H12V6.66659Z" fill="#E34F4F"/>
<path fill-rule="evenodd" clip-rule="evenodd" d="M16 6.66659H17.3333V5.33325H16V6.66659Z" fill="#E34F4F"/>
</g>
</svg>
