<svg width="28" height="20" viewBox="0 0 28 20" fill="none" xmlns="http://www.w3.org/2000/svg">
<rect width="28" height="20" rx="2" fill="white"/>
<mask id="mask0_704_31863" style="mask-type:luminance" maskUnits="userSpaceOnUse" x="0" y="0" width="28" height="20">
<rect width="28" height="20" rx="2" fill="white"/>
</mask>
<g mask="url(#mask0_704_31863)">
<path fill-rule="evenodd" clip-rule="evenodd" d="M0 20H28V0H0V20Z" fill="#F0371D"/>
<path fill-rule="evenodd" clip-rule="evenodd" d="M13.984 8.14565C14.9468 7.33977 15.0054 7.15955 15.2361 6.44955C15.3131 6.21257 15.2588 6.01792 15.1946 5.78806C15.1022 5.4566 14.9892 5.05191 15.2201 4.34143C14.1696 4.00009 12.949 4.85886 12.4939 6.25954C12.0388 7.66022 12.5215 9.0724 13.572 9.41373C13.7601 9.47483 13.739 9.43065 13.6819 9.31102C13.5817 9.10113 13.3707 8.65896 13.984 8.14565ZM11.9901 9.61749C11.5212 8.45276 11.3679 8.34137 10.764 7.90257C10.5624 7.75611 10.3605 7.74761 10.122 7.73758C9.77822 7.72311 9.35844 7.70545 8.75407 7.26635C8.10482 8.15996 8.54439 9.58614 9.73587 10.4518C10.9274 11.3175 12.4196 11.2948 13.0688 10.4012C13.1851 10.2412 13.1365 10.2476 13.0051 10.2649C12.7745 10.2953 12.2888 10.3594 11.9901 9.61749ZM18 10.2537C17.2535 10.2537 17.064 10.2537 16 9.58705C15.3223 9.16241 14.967 9.4997 14.7983 9.65982C14.7022 9.75108 14.6667 9.78478 14.6667 9.58705C14.6667 8.48248 15.8606 7.58705 17.3334 7.58705C18.8061 7.58705 20 8.48248 20 9.58705C19.253 9.58705 18.903 9.8195 18.6163 10.0099C18.4175 10.1419 18.2492 10.2537 18 10.2537ZM18 8.99987C18 9.18397 17.8508 9.3332 17.6667 9.3332C17.4826 9.3332 17.3334 9.18397 17.3334 8.99987C17.3334 8.81578 17.4826 8.66654 17.6667 8.66654C17.8508 8.66654 18 8.81578 18 8.99987ZM15.2521 11.9498C14.9468 13.1677 15.0054 13.3479 15.2361 14.0579C15.3131 14.2949 15.4714 14.4205 15.6584 14.5687C15.9281 14.7825 16.2573 15.0436 16.4882 15.754C17.5387 15.4127 18.0213 14.0005 17.5662 12.5999C17.1111 11.1992 15.8906 10.3404 14.8401 10.6817C14.652 10.7428 14.695 10.7662 14.8115 10.8294C15.0159 10.9404 15.4465 11.1741 15.2521 11.9498ZM16.4286 13.6705C16.2535 13.7274 16.0654 13.6316 16.0085 13.4565C15.9517 13.2814 16.0475 13.0933 16.2226 13.0364C16.3976 12.9796 16.5857 13.0754 16.6426 13.2505C16.6995 13.4255 16.6037 13.6136 16.4286 13.6705ZM12.7739 11.9686C11.5212 12.0547 11.3679 12.1661 10.764 12.6049C10.5624 12.7513 10.4919 12.9407 10.4087 13.1644C10.2887 13.4869 10.1422 13.8807 9.53778 14.3198C10.187 15.2134 11.6792 15.236 12.8707 14.3704C14.0622 13.5047 14.5018 12.0785 13.8525 11.1849C13.7363 11.0249 13.7274 11.0731 13.7033 11.2034C13.6609 11.4321 13.5717 11.9138 12.7739 11.9686ZM11.501 13.6192C11.3927 13.4703 11.4258 13.2618 11.5747 13.1536C11.7236 13.0454 11.9321 13.0784 12.0403 13.2274C12.1485 13.3763 12.1155 13.5848 11.9666 13.693C11.8176 13.8012 11.6092 13.7682 11.501 13.6192ZM10.027 8.91695C10.1352 8.76801 10.3436 8.735 10.4926 8.84321C10.6415 8.95142 10.6745 9.15987 10.5663 9.30881C10.4581 9.45774 10.2496 9.49076 10.1007 9.38255C9.95178 9.27434 9.91876 9.06589 10.027 8.91695ZM14.0436 6.06209C14.2187 6.11898 14.3145 6.30703 14.2576 6.48212C14.2007 6.6572 14.0127 6.75302 13.8376 6.69613C13.6625 6.63924 13.5667 6.45119 13.6236 6.2761C13.6805 6.10102 13.8685 6.0052 14.0436 6.06209Z" fill="white"/>
</g>
</svg>
