<svg width="28" height="20" viewBox="0 0 28 20" fill="none" xmlns="http://www.w3.org/2000/svg">
<rect width="28" height="20" rx="2" fill="white"/>
<mask id="mask0_704_31808" style="mask-type:luminance" maskUnits="userSpaceOnUse" x="0" y="0" width="28" height="20">
<rect width="28" height="20" rx="2" fill="white"/>
</mask>
<g mask="url(#mask0_704_31808)">
<path fill-rule="evenodd" clip-rule="evenodd" d="M0 9.33333H28V0H0V9.33333Z" fill="#112EBC"/>
<path fill-rule="evenodd" clip-rule="evenodd" d="M0 19.9999H28V9.33325H0V19.9999Z" fill="#E3264A"/>
<rect x="9.3335" y="6.66675" width="9.33333" height="8" rx="0.666667" fill="url(#paint0_linear_704_31808)"/>
<mask id="mask1_704_31808" style="mask-type:luminance" maskUnits="userSpaceOnUse" x="9" y="6" width="10" height="9">
<rect x="9.3335" y="6.66675" width="9.33333" height="8" rx="0.666667" fill="white"/>
</mask>
<g mask="url(#mask1_704_31808)">
<path d="M12.6294 12.333H15.3706C15.6877 12.333 16.001 12.3977 16.2915 12.5225L16.4146 12.5801L18.3335 13.5391V14.333H9.6665V13.54L11.5864 12.5801C11.9103 12.4181 12.2673 12.3331 12.6294 12.333Z" fill="#AABCAE" stroke="#366C14" stroke-width="0.666667"/>
<path fill-rule="evenodd" clip-rule="evenodd" d="M14 12C15.1046 12 16 11.1046 16 10C16 8.89543 15.1046 8 14 8C12.8954 8 12 8.89543 12 10C12 11.1046 12.8954 12 14 12Z" fill="#D4B872"/>
<path d="M16.459 11.1267C16.6772 10.9523 17 11.108 17 11.3875V12.6667C17 12.8508 16.8511 12.9998 16.667 12.9998H11.334C11.1499 12.9998 11 12.8508 11 12.6667V11.3875C11 11.1429 11.248 10.9926 11.4561 11.0759L11.542 11.1267L13.376 12.5935C13.6956 12.8491 14.1325 12.881 14.4814 12.6892L14.625 12.5935L16.459 11.1267Z" fill="#C28321" stroke="#0D3488" stroke-width="0.666667"/>
<path fill-rule="evenodd" clip-rule="evenodd" d="M12.569 8.56903C12.359 8.35905 12.5078 8 12.8047 8H15.1953C15.4922 8 15.641 8.35905 15.431 8.56904L14.2357 9.7643C14.1055 9.89447 13.8945 9.89447 13.7643 9.7643L12.569 8.56903Z" fill="#216C30"/>
</g>
</g>
<defs>
<linearGradient id="paint0_linear_704_31808" x1="9.3335" y1="6.66675" x2="9.3335" y2="14.6667" gradientUnits="userSpaceOnUse">
<stop stop-color="white"/>
<stop offset="1" stop-color="#F0F0F0"/>
</linearGradient>
</defs>
</svg>
