<svg width="28" height="20" viewBox="0 0 28 20" fill="none" xmlns="http://www.w3.org/2000/svg">
<rect x="0.25" y="0.25" width="27.5" height="19.5" rx="1.75" fill="white" stroke="#F5F5F5" stroke-width="0.5"/>
<mask id="mask0_704_31909" style="mask-type:luminance" maskUnits="userSpaceOnUse" x="0" y="0" width="28" height="20">
<rect x="0.25" y="0.25" width="27.5" height="19.5" rx="1.75" fill="white" stroke="white" stroke-width="0.5"/>
</mask>
<g mask="url(#mask0_704_31909)">
<path fill-rule="evenodd" clip-rule="evenodd" d="M0 6.66667H28V0H0V6.66667Z" fill="#38BB56"/>
<path fill-rule="evenodd" clip-rule="evenodd" d="M0 19.9999H28V13.3333H0V19.9999Z" fill="#DE1B27"/>
<path fill-rule="evenodd" clip-rule="evenodd" d="M1.66683 5.33325C1.48273 5.33325 1.3335 5.48249 1.3335 5.66659V6.33325C1.3335 6.51735 1.48273 6.66659 1.66683 6.66659H2.3335C2.51759 6.66659 2.66683 6.51735 2.66683 6.33325V5.66659C2.66683 5.48249 2.51759 5.33325 2.3335 5.33325H1.66683ZM4.3335 5.33325C4.1494 5.33325 4.00016 5.48249 4.00016 5.66659V6.33325C4.00016 6.51735 4.1494 6.66659 4.3335 6.66659H5.00016C5.18426 6.66659 5.3335 6.51735 5.3335 6.33325V5.66659C5.3335 5.48249 5.18426 5.33325 5.00016 5.33325H4.3335ZM6.66683 5.66659C6.66683 5.48249 6.81607 5.33325 7.00016 5.33325H7.66683C7.85092 5.33325 8.00016 5.48249 8.00016 5.66659V6.33325C8.00016 6.51735 7.85092 6.66659 7.66683 6.66659H7.00016C6.81607 6.66659 6.66683 6.51735 6.66683 6.33325V5.66659ZM9.66683 5.33325C9.48273 5.33325 9.3335 5.48249 9.3335 5.66659V6.33325C9.3335 6.51735 9.48273 6.66659 9.66683 6.66659H10.3335C10.5176 6.66659 10.6668 6.51735 10.6668 6.33325V5.66659C10.6668 5.48249 10.5176 5.33325 10.3335 5.33325H9.66683ZM12.0002 5.66659C12.0002 5.48249 12.1494 5.33325 12.3335 5.33325H13.0002C13.1843 5.33325 13.3335 5.48249 13.3335 5.66659V6.33325C13.3335 6.51735 13.1843 6.66659 13.0002 6.66659H12.3335C12.1494 6.66659 12.0002 6.51735 12.0002 6.33325V5.66659ZM15.0002 5.33325C14.8161 5.33325 14.6668 5.48249 14.6668 5.66659V6.33325C14.6668 6.51735 14.8161 6.66659 15.0002 6.66659H15.6668C15.8509 6.66659 16.0002 6.51735 16.0002 6.33325V5.66659C16.0002 5.48249 15.8509 5.33325 15.6668 5.33325H15.0002ZM17.3335 5.66659C17.3335 5.48249 17.4827 5.33325 17.6668 5.33325H18.3335C18.5176 5.33325 18.6668 5.48249 18.6668 5.66659V6.33325C18.6668 6.51735 18.5176 6.66659 18.3335 6.66659H17.6668C17.4827 6.66659 17.3335 6.51735 17.3335 6.33325V5.66659ZM20.3335 5.33325C20.1494 5.33325 20.0002 5.48249 20.0002 5.66659V6.33325C20.0002 6.51735 20.1494 6.66659 20.3335 6.66659H21.0002C21.1843 6.66659 21.3335 6.51735 21.3335 6.33325V5.66659C21.3335 5.48249 21.1843 5.33325 21.0002 5.33325H20.3335ZM22.6668 5.66659C22.6668 5.48249 22.8161 5.33325 23.0002 5.33325H23.6668C23.8509 5.33325 24.0002 5.48249 24.0002 5.66659V6.33325C24.0002 6.51735 23.8509 6.66659 23.6668 6.66659H23.0002C22.8161 6.66659 22.6668 6.51735 22.6668 6.33325V5.66659ZM25.6668 5.33325C25.4827 5.33325 25.3335 5.48249 25.3335 5.66659V6.33325C25.3335 6.51735 25.4827 6.66659 25.6668 6.66659H26.3335C26.5176 6.66659 26.6668 6.51735 26.6668 6.33325V5.66659C26.6668 5.48249 26.5176 5.33325 26.3335 5.33325H25.6668ZM1.3335 13.6666C1.3335 13.4825 1.48273 13.3333 1.66683 13.3333H2.3335C2.51759 13.3333 2.66683 13.4825 2.66683 13.6666V14.3333C2.66683 14.5173 2.51759 14.6666 2.3335 14.6666H1.66683C1.48273 14.6666 1.3335 14.5173 1.3335 14.3333V13.6666ZM4.3335 13.3333C4.1494 13.3333 4.00016 13.4825 4.00016 13.6666V14.3333C4.00016 14.5173 4.1494 14.6666 4.3335 14.6666H5.00016C5.18426 14.6666 5.3335 14.5173 5.3335 14.3333V13.6666C5.3335 13.4825 5.18426 13.3333 5.00016 13.3333H4.3335ZM6.66683 13.6666C6.66683 13.4825 6.81607 13.3333 7.00016 13.3333H7.66683C7.85092 13.3333 8.00016 13.4825 8.00016 13.6666V14.3333C8.00016 14.5173 7.85092 14.6666 7.66683 14.6666H7.00016C6.81607 14.6666 6.66683 14.5173 6.66683 14.3333V13.6666ZM9.66683 13.3333C9.48273 13.3333 9.3335 13.4825 9.3335 13.6666V14.3333C9.3335 14.5173 9.48273 14.6666 9.66683 14.6666H10.3335C10.5176 14.6666 10.6668 14.5173 10.6668 14.3333V13.6666C10.6668 13.4825 10.5176 13.3333 10.3335 13.3333H9.66683ZM12.0002 13.6666C12.0002 13.4825 12.1494 13.3333 12.3335 13.3333H13.0002C13.1843 13.3333 13.3335 13.4825 13.3335 13.6666V14.3333C13.3335 14.5173 13.1843 14.6666 13.0002 14.6666H12.3335C12.1494 14.6666 12.0002 14.5173 12.0002 14.3333V13.6666ZM15.0002 13.3333C14.8161 13.3333 14.6668 13.4825 14.6668 13.6666V14.3333C14.6668 14.5173 14.8161 14.6666 15.0002 14.6666H15.6668C15.8509 14.6666 16.0002 14.5173 16.0002 14.3333V13.6666C16.0002 13.4825 15.8509 13.3333 15.6668 13.3333H15.0002ZM17.3335 13.6666C17.3335 13.4825 17.4827 13.3333 17.6668 13.3333H18.3335C18.5176 13.3333 18.6668 13.4825 18.6668 13.6666V14.3333C18.6668 14.5173 18.5176 14.6666 18.3335 14.6666H17.6668C17.4827 14.6666 17.3335 14.5173 17.3335 14.3333V13.6666ZM20.3335 13.3333C20.1494 13.3333 20.0002 13.4825 20.0002 13.6666V14.3333C20.0002 14.5173 20.1494 14.6666 20.3335 14.6666H21.0002C21.1843 14.6666 21.3335 14.5173 21.3335 14.3333V13.6666C21.3335 13.4825 21.1843 13.3333 21.0002 13.3333H20.3335ZM22.6668 13.6666C22.6668 13.4825 22.8161 13.3333 23.0002 13.3333H23.6668C23.8509 13.3333 24.0002 13.4825 24.0002 13.6666V14.3333C24.0002 14.5173 23.8509 14.6666 23.6668 14.6666H23.0002C22.8161 14.6666 22.6668 14.5173 22.6668 14.3333V13.6666ZM25.6668 13.3333C25.4827 13.3333 25.3335 13.4825 25.3335 13.6666V14.3333C25.3335 14.5173 25.4827 14.6666 25.6668 14.6666H26.3335C26.5176 14.6666 26.6668 14.5173 26.6668 14.3333V13.6666C26.6668 13.4825 26.5176 13.3333 26.3335 13.3333H25.6668Z" fill="white" fill-opacity="0.5"/>
<mask id="path-6-inside-1_704_31909" fill="white">
<path fill-rule="evenodd" clip-rule="evenodd" d="M12.6535 8.52124C12.252 8.88703 12 9.41414 12 10.0001C12 11.1047 12.8954 12.0001 14 12.0001C15.1046 12.0001 16 11.1047 16 10.0001C16 9.4252 15.7574 8.90695 15.3691 8.54212"/>
</mask>
<path d="M12.2045 8.02842C11.6702 8.51522 11.3333 9.2188 11.3333 10.0001H12.6667C12.6667 9.60948 12.8338 9.25885 13.1025 9.01406L12.2045 8.02842ZM11.3333 10.0001C11.3333 11.4729 12.5272 12.6668 14 12.6668V11.3334C13.2636 11.3334 12.6667 10.7365 12.6667 10.0001H11.3333ZM14 12.6668C15.4728 12.6668 16.6667 11.4729 16.6667 10.0001H15.3333C15.3333 10.7365 14.7364 11.3334 14 11.3334V12.6668ZM16.6667 10.0001C16.6667 9.23361 16.3424 8.54179 15.8255 8.05622L14.9126 9.02802C15.1724 9.27211 15.3333 9.61679 15.3333 10.0001H16.6667Z" fill="#D80915" mask="url(#path-6-inside-1_704_31909)"/>
<rect x="13.3335" y="9.33325" width="1.33333" height="2.66667" rx="0.666667" fill="#D80915"/>
</g>
</svg>
