<svg width="28" height="20" viewBox="0 0 28 20" fill="none" xmlns="http://www.w3.org/2000/svg">
<rect width="28" height="20" rx="2" fill="white"/>
<mask id="mask0_704_32019" style="mask-type:luminance" maskUnits="userSpaceOnUse" x="0" y="0" width="28" height="20">
<rect width="28" height="20" rx="2" fill="white"/>
</mask>
<g mask="url(#mask0_704_32019)">
<path fill-rule="evenodd" clip-rule="evenodd" d="M0 5.33333H28V0H0V5.33333Z" fill="#262626"/>
<path fill-rule="evenodd" clip-rule="evenodd" d="M0 20.0001H28V14.6667H0V20.0001Z" fill="#018301"/>
<path fill-rule="evenodd" clip-rule="evenodd" d="M0 14.6666H28V5.33325H0V14.6666Z" fill="white"/>
<path fill-rule="evenodd" clip-rule="evenodd" d="M0 13.3334H28V6.66675H0V13.3334Z" fill="#DC0808"/>
<path fill-rule="evenodd" clip-rule="evenodd" d="M13.9998 16.6666C15.3332 16.6666 17.3332 14.05 17.3332 9.99992C17.3332 5.94983 15.3332 3.33325 13.9998 3.33325C12.6665 3.33325 10.6665 5.94983 10.6665 9.99992C10.6665 14.05 12.6665 16.6666 13.9998 16.6666Z" fill="#BC0000"/>
<mask id="mask1_704_32019" style="mask-type:luminance" maskUnits="userSpaceOnUse" x="10" y="3" width="8" height="14">
<path fill-rule="evenodd" clip-rule="evenodd" d="M13.9998 16.6666C15.3332 16.6666 17.3332 14.05 17.3332 9.99992C17.3332 5.94983 15.3332 3.33325 13.9998 3.33325C12.6665 3.33325 10.6665 5.94983 10.6665 9.99992C10.6665 14.05 12.6665 16.6666 13.9998 16.6666Z" fill="white"/>
</mask>
<g mask="url(#mask1_704_32019)">
<path fill-rule="evenodd" clip-rule="evenodd" d="M8.66634 17.3332C10.5073 17.3332 11.9997 14.0499 11.9997 9.99984C11.9997 5.94975 10.5073 2.6665 8.66634 2.6665C6.82539 2.6665 5.33301 5.94975 5.33301 9.99984C5.33301 14.0499 6.82539 17.3332 8.66634 17.3332Z" fill="#262626"/>
<path fill-rule="evenodd" clip-rule="evenodd" d="M19.3333 17.3332C21.1743 17.3332 22.6667 14.0499 22.6667 9.99984C22.6667 5.94975 21.1743 2.6665 19.3333 2.6665C17.4924 2.6665 16 5.94975 16 9.99984C16 14.0499 17.4924 17.3332 19.3333 17.3332Z" fill="#262626"/>
<g filter="url(#filter0_d_704_32019)">
<path fill-rule="evenodd" clip-rule="evenodd" d="M13.9997 7.99984C14.3679 7.99984 14.6663 6.80593 14.6663 5.33317C14.6663 3.86041 14.3679 2.6665 13.9997 2.6665C13.6315 2.6665 13.333 3.86041 13.333 5.33317C13.333 6.80593 13.6315 7.99984 13.9997 7.99984ZM13.9997 11.9998C14.3679 11.9998 14.6663 11.1044 14.6663 9.99984C14.6663 8.89527 14.3679 7.99984 13.9997 7.99984C13.6315 7.99984 13.333 8.89527 13.333 9.99984C13.333 11.1044 13.6315 11.9998 13.9997 11.9998ZM13.9997 11.9998C13.6315 11.9998 13.333 13.1937 13.333 14.6665C13.333 16.1393 13.6315 17.3332 13.9997 17.3332C14.3679 17.3332 14.6663 16.1393 14.6663 14.6665C14.6663 13.1937 14.3679 11.9998 13.9997 11.9998Z" fill="url(#paint0_linear_704_32019)"/>
</g>
</g>
</g>
<defs>
<filter id="filter0_d_704_32019" x="13.333" y="2.6665" width="1.3335" height="15.6667" filterUnits="userSpaceOnUse" color-interpolation-filters="sRGB">
<feFlood flood-opacity="0" result="BackgroundImageFix"/>
<feColorMatrix in="SourceAlpha" type="matrix" values="0 0 0 0 0 0 0 0 0 0 0 0 0 0 0 0 0 0 127 0" result="hardAlpha"/>
<feOffset dy="1"/>
<feColorMatrix type="matrix" values="0 0 0 0 0 0 0 0 0 0 0 0 0 0 0 0 0 0 0.06 0"/>
<feBlend mode="normal" in2="BackgroundImageFix" result="effect1_dropShadow_704_32019"/>
<feBlend mode="normal" in="SourceGraphic" in2="effect1_dropShadow_704_32019" result="shape"/>
</filter>
<linearGradient id="paint0_linear_704_32019" x1="13.333" y1="2.6665" x2="13.333" y2="17.3332" gradientUnits="userSpaceOnUse">
<stop stop-color="white"/>
<stop offset="1" stop-color="#F0F0F0"/>
</linearGradient>
</defs>
</svg>
