<svg width="28" height="20" viewBox="0 0 28 20" fill="none" xmlns="http://www.w3.org/2000/svg">
<rect width="28" height="20" rx="2" fill="white"/>
<mask id="mask0_704_31978" style="mask-type:luminance" maskUnits="userSpaceOnUse" x="0" y="0" width="28" height="20">
<rect width="28" height="20" rx="2" fill="white"/>
</mask>
<g mask="url(#mask0_704_31978)">
<path fill-rule="evenodd" clip-rule="evenodd" d="M0 5.33333H28V0H0V5.33333Z" fill="#0F3EB6"/>
<path fill-rule="evenodd" clip-rule="evenodd" d="M0 20.0001H28V14.6667H0V20.0001Z" fill="#0F3EB6"/>
<path fill-rule="evenodd" clip-rule="evenodd" d="M0 14.6666H28V5.33325H0V14.6666Z" fill="#ED1A3C"/>
<path fill-rule="evenodd" clip-rule="evenodd" d="M11.9998 8.72713H13.3332V7.99992C13.3332 7.63173 13.6316 7.33325 13.9998 7.33325C14.368 7.33325 14.6665 7.63173 14.6665 7.99992V8.72713H15.9998V9.99992H11.9998V8.72713ZM17.3332 7.99992C16.965 7.99992 16.6665 8.2984 16.6665 8.66659V9.99992H17.9998V8.66659C17.9998 8.2984 17.7014 7.99992 17.3332 7.99992ZM11.3332 13.3333V10.6666H9.99984L8.6665 13.3333H11.3332ZM15.9998 10.6666H11.9998V13.3333H15.9998V10.6666ZM16.6665 10.6666H17.9998L19.3332 13.3333H16.6665V10.6666ZM10.6665 7.99992C10.2983 7.99992 9.99984 8.2984 9.99984 8.66659V9.99992H11.3332V8.66659C11.3332 8.2984 11.0347 7.99992 10.6665 7.99992Z" fill="white"/>
</g>
</svg>
