<svg width="28" height="20" viewBox="0 0 28 20" fill="none" xmlns="http://www.w3.org/2000/svg">
<rect width="28" height="20" rx="2" fill="white"/>
<mask id="mask0_704_32086" style="mask-type:luminance" maskUnits="userSpaceOnUse" x="0" y="0" width="28" height="20">
<rect width="28" height="20" rx="2" fill="white"/>
</mask>
<g mask="url(#mask0_704_32086)">
<rect width="28" height="20" fill="#07319C"/>
<path fill-rule="evenodd" clip-rule="evenodd" d="M20.6665 6.66667C21.7711 6.66667 22.6665 6.06971 22.6665 5.33333C22.6665 4.59695 21.7711 4 20.6665 4C19.5619 4 18.6665 4.59695 18.6665 5.33333C18.6665 6.06971 19.5619 6.66667 20.6665 6.66667Z" fill="#FAD051"/>
<path fill-rule="evenodd" clip-rule="evenodd" d="M17.3335 9.99992C17.3335 7.99992 17.3335 5.33325 17.3335 5.33325H24.0002C24.0002 5.33325 24.0002 7.99992 24.0002 9.99992C24.0002 13.3333 20.6668 14.6666 20.6668 14.6666C20.6668 14.6666 17.3335 13.3333 17.3335 9.99992Z" fill="url(#paint0_linear_704_32086)"/>
<mask id="mask1_704_32086" style="mask-type:luminance" maskUnits="userSpaceOnUse" x="17" y="5" width="7" height="10">
<path fill-rule="evenodd" clip-rule="evenodd" d="M17.3335 9.99992C17.3335 7.99992 17.3335 5.33325 17.3335 5.33325H24.0002C24.0002 5.33325 24.0002 7.99992 24.0002 9.99992C24.0002 13.3333 20.6668 14.6666 20.6668 14.6666C20.6668 14.6666 17.3335 13.3333 17.3335 9.99992Z" fill="white"/>
</mask>
<g mask="url(#mask1_704_32086)">
<path fill-rule="evenodd" clip-rule="evenodd" d="M17.3335 5.33325H24.0002V6.66659H21.3335H20.0002H17.3335V5.33325Z" fill="#CF142C"/>
<path fill-rule="evenodd" clip-rule="evenodd" d="M24.0002 8H17.3335V9.33333H20.0002H21.3335H24.0002V8ZM17.3335 10.6667H24.0002V12H21.3335H20.0002H17.3335V10.6667ZM17.3335 13.3333H24.0002V14.6667H21.3335H20.0002H17.3335V13.3333Z" fill="#125FBA"/>
</g>
<path d="M12.333 0.495117C12.333 0.683588 12.2536 0.861844 12.1162 0.987305L12.0537 1.03809L7.66699 4.1709V5.17969L11.7646 8.69238L11.8301 8.75879C12.1237 9.10471 11.8861 9.66675 11.4043 9.66699C11.3179 9.66699 11.2328 9.64666 11.1562 9.6084L11.082 9.56348L6.55859 6.33301H5.42871L0.176758 9.61621L-0.333008 9.93457V8.49512L-0.193359 8.39551L4.33301 5.16211V4.15234L-0.216797 0.25293L-0.901367 -0.333008H0.773438L0.860352 -0.271484L5.43945 3H6.57129L11.8232 -0.282227L12.333 -0.601562V0.495117Z" fill="#DB1E36" stroke="white" stroke-width="0.666667"/>
<path fill-rule="evenodd" clip-rule="evenodd" d="M0 3.33333V6H4.66667V9.33333C4.66667 9.70152 4.96514 10 5.33333 10H6.66667C7.03486 10 7.33333 9.70152 7.33333 9.33333V6H12C12.3682 6 12.6667 5.70152 12.6667 5.33333V4C12.6667 3.63181 12.3682 3.33333 12 3.33333H7.33333V0H4.66667V3.33333H0Z" fill="white"/>
<path fill-rule="evenodd" clip-rule="evenodd" d="M0 4H5.33333V3.33333V0H6.66667V3.33333V4H12V5.33333H6.66667V6V9.33333H5.33333V6V5.33333H0V4Z" fill="#DB1E36"/>
</g>
<defs>
<linearGradient id="paint0_linear_704_32086" x1="17.3335" y1="5.33325" x2="17.3335" y2="14.6666" gradientUnits="userSpaceOnUse">
<stop stop-color="white"/>
<stop offset="1" stop-color="#F0F0F0"/>
</linearGradient>
</defs>
</svg>
