<svg width="28" height="20" viewBox="0 0 28 20" fill="none" xmlns="http://www.w3.org/2000/svg">
<rect x="0.25" y="0.25" width="27.5" height="19.5" rx="1.75" fill="white" stroke="#F5F5F5" stroke-width="0.5"/>
<mask id="mask0_704_32130" style="mask-type:luminance" maskUnits="userSpaceOnUse" x="0" y="0" width="28" height="20">
<rect x="0.25" y="0.25" width="27.5" height="19.5" rx="1.75" fill="white" stroke="white" stroke-width="0.5"/>
</mask>
<g mask="url(#mask0_704_32130)">
<path fill-rule="evenodd" clip-rule="evenodd" d="M28 0H13.3333V2.66667H28V0ZM28 5.33333H13.3333V8H28V5.33333ZM13.3333 10.6667H28V13.3333H13.3333V10.6667ZM28 16H0V18.6667H28V16Z" fill="#E1244A"/>
<rect width="13.3333" height="13.3333" fill="#0C3F8E"/>
<path fill-rule="evenodd" clip-rule="evenodd" d="M6.6665 8.22675L4.31536 9.90282L5.18286 7.14881L2.86228 5.43068L5.74956 5.40468L6.6665 2.66675L7.58345 5.40468L10.4707 5.43068L8.15015 7.14881L9.01764 9.90282L6.6665 8.22675Z" fill="white"/>
</g>
</svg>
