<svg width="28" height="20" viewBox="0 0 28 20" fill="none" xmlns="http://www.w3.org/2000/svg">
<rect x="0.25" y="0.25" width="27.5" height="19.5" rx="1.75" fill="white" stroke="#F5F5F5" stroke-width="0.5"/>
<mask id="mask0_704_32147" style="mask-type:luminance" maskUnits="userSpaceOnUse" x="0" y="0" width="28" height="20">
<rect x="0.25" y="0.25" width="27.5" height="19.5" rx="1.75" fill="white" stroke="white" stroke-width="0.5"/>
</mask>
<g mask="url(#mask0_704_32147)">
<path fill-rule="evenodd" clip-rule="evenodd" d="M0 6.66667H28V0H0V6.66667Z" fill="#0C33B8"/>
<path fill-rule="evenodd" clip-rule="evenodd" d="M0 19.9999H28V13.3333H0V19.9999Z" fill="#1DB158"/>
<path fill-rule="evenodd" clip-rule="evenodd" d="M13.3331 9.99992L13.3673 9.89729C13.5699 9.28949 14.4296 9.28949 14.6322 9.89729L14.6664 9.99992L15.8482 11.7726C15.9363 11.9048 15.917 12.0791 15.7851 12.1677C15.4914 12.3652 14.8963 12.6666 13.9998 12.6666C13.1033 12.6666 12.5082 12.3652 12.2144 12.1677C12.0826 12.0791 12.0632 11.9048 12.1514 11.7726L13.3331 9.99992Z" fill="#262626"/>
<path d="M13.9995 7.66626C14.5517 7.66626 14.9993 8.11412 14.9995 8.66626C14.9995 9.21854 14.5518 9.66626 13.9995 9.66626C13.4474 9.66608 12.9995 9.21844 12.9995 8.66626C12.9997 8.11423 13.4475 7.66644 13.9995 7.66626Z" stroke="#262626" stroke-width="0.666667"/>
</g>
</svg>
