<svg width="28" height="20" viewBox="0 0 28 20" fill="none" xmlns="http://www.w3.org/2000/svg">
<rect width="28" height="20" rx="2" fill="white"/>
<mask id="mask0_704_32342" style="mask-type:luminance" maskUnits="userSpaceOnUse" x="0" y="0" width="28" height="20">
<rect width="28" height="20" rx="2" fill="white"/>
</mask>
<g mask="url(#mask0_704_32342)">
<rect width="28" height="20" fill="#108B4D"/>
<path fill-rule="evenodd" clip-rule="evenodd" d="M19.8134 7.73341C19.862 8.04085 19.8872 8.35605 19.8872 8.67714C19.8872 11.9908 17.2009 14.6771 13.8872 14.6771C10.5735 14.6771 7.88721 11.9908 7.88721 8.67714C7.88721 8.35605 7.91243 8.04085 7.961 7.73341C8.41369 10.5988 10.8946 12.7897 13.8872 12.7897C16.8798 12.7897 19.3607 10.5988 19.8134 7.73341ZM13.9998 8.56417L12.3517 9.73905L12.9598 7.80856L11.3331 6.60419L13.357 6.58597L13.9998 4.66675L14.6425 6.58597L16.6664 6.60419L15.0398 7.80856L15.6479 9.73905L13.9998 8.56417Z" fill="#FFC941"/>
</g>
</svg>
