<svg width="28" height="20" viewBox="0 0 28 20" fill="none" xmlns="http://www.w3.org/2000/svg">
<rect x="0.25" y="0.25" width="27.5" height="19.5" rx="1.75" fill="white" stroke="#F5F5F5" stroke-width="0.5"/>
<mask id="mask0_704_32305" style="mask-type:luminance" maskUnits="userSpaceOnUse" x="0" y="0" width="28" height="20">
<rect x="0.25" y="0.25" width="27.5" height="19.5" rx="1.75" fill="white" stroke="white" stroke-width="0.5"/>
</mask>
<g mask="url(#mask0_704_32305)">
<path fill-rule="evenodd" clip-rule="evenodd" d="M14.6665 20H27.9998V0H14.6665V20Z" fill="#DE233C"/>
<mask id="path-4-outside-1_704_32305" maskUnits="userSpaceOnUse" x="1.6665" y="1.66675" width="6" height="6" fill="black">
<rect fill="white" x="1.6665" y="1.66675" width="6" height="6"/>
<path fill-rule="evenodd" clip-rule="evenodd" d="M5.33317 2.66675H3.99984V4.00008H2.6665V5.33341H3.99984V6.66675H5.33317V5.33341H6.6665V4.00008H5.33317V2.66675Z"/>
</mask>
<path fill-rule="evenodd" clip-rule="evenodd" d="M5.33317 2.66675H3.99984V4.00008H2.6665V5.33341H3.99984V6.66675H5.33317V5.33341H6.6665V4.00008H5.33317V2.66675Z" fill="#CCCCCD"/>
<path d="M3.99984 2.66675V2.00008H3.33317V2.66675H3.99984ZM5.33317 2.66675H5.99984V2.00008H5.33317V2.66675ZM3.99984 4.00008V4.66675H4.6665V4.00008H3.99984ZM2.6665 4.00008V3.33341H1.99984V4.00008H2.6665ZM2.6665 5.33341H1.99984V6.00008H2.6665V5.33341ZM3.99984 5.33341H4.6665V4.66675H3.99984V5.33341ZM3.99984 6.66675H3.33317V7.33341H3.99984V6.66675ZM5.33317 6.66675V7.33341H5.99984V6.66675H5.33317ZM5.33317 5.33341V4.66675H4.6665V5.33341H5.33317ZM6.6665 5.33341V6.00008H7.33317V5.33341H6.6665ZM6.6665 4.00008H7.33317V3.33341H6.6665V4.00008ZM5.33317 4.00008H4.6665V4.66675H5.33317V4.00008ZM3.99984 3.33341H5.33317V2.00008H3.99984V3.33341ZM4.6665 4.00008V2.66675H3.33317V4.00008H4.6665ZM2.6665 4.66675H3.99984V3.33341H2.6665V4.66675ZM3.33317 5.33341V4.00008H1.99984V5.33341H3.33317ZM3.99984 4.66675H2.6665V6.00008H3.99984V4.66675ZM4.6665 6.66675V5.33341H3.33317V6.66675H4.6665ZM5.33317 6.00008H3.99984V7.33341H5.33317V6.00008ZM4.6665 5.33341V6.66675H5.99984V5.33341H4.6665ZM6.6665 4.66675H5.33317V6.00008H6.6665V4.66675ZM5.99984 4.00008V5.33341H7.33317V4.00008H5.99984ZM5.33317 4.66675H6.6665V3.33341H5.33317V4.66675ZM4.6665 2.66675V4.00008H5.99984V2.66675H4.6665Z" fill="#7B716A" fill-opacity="0.66" mask="url(#path-4-outside-1_704_32305)"/>
<path fill-rule="evenodd" clip-rule="evenodd" d="M4.66667 5.33333C5.03486 5.33333 5.33333 5.03486 5.33333 4.66667C5.33333 4.29848 5.03486 4 4.66667 4C4.29848 4 4 4.29848 4 4.66667C4 5.03486 4.29848 5.33333 4.66667 5.33333Z" fill="#7B716A"/>
</g>
</svg>
