<svg width="28" height="20" viewBox="0 0 28 20" fill="none" xmlns="http://www.w3.org/2000/svg">
<rect x="0.25" y="0.25" width="27.5" height="19.5" rx="1.75" fill="white" stroke="#F5F5F5" stroke-width="0.5"/>
<mask id="mask0_704_32264" style="mask-type:luminance" maskUnits="userSpaceOnUse" x="0" y="0" width="28" height="20">
<rect x="0.25" y="0.25" width="27.5" height="19.5" rx="1.75" fill="white" stroke="white" stroke-width="0.5"/>
</mask>
<g mask="url(#mask0_704_32264)">
<rect x="18.6665" width="9.33333" height="20" fill="#E3283E"/>
<path fill-rule="evenodd" clip-rule="evenodd" d="M0 20H9.33333V0H0V20Z" fill="#128A60"/>
<path d="M12.0002 9.33325C12.0002 8.96506 11.7017 8.66659 11.3335 8.66659C10.9653 8.66659 10.6668 8.96506 10.6668 9.33325H12.0002ZM12.3292 12.218C12.6477 12.4028 13.0556 12.2944 13.2404 11.976C13.4252 11.6575 13.3168 11.2496 12.9984 11.0648L12.3292 12.218ZM15.0758 11.0198C14.7656 11.2181 14.675 11.6304 14.8734 11.9406C15.0718 12.2508 15.484 12.3414 15.7942 12.143L15.0758 11.0198ZM17.3335 9.33325C17.3335 8.96506 17.035 8.66659 16.6668 8.66659C16.2986 8.66659 16.0002 8.96506 16.0002 9.33325H17.3335ZM10.6668 9.33325C10.6668 10.5663 11.3367 11.6421 12.3292 12.218L12.9984 11.0648C12.4001 10.7176 12.0002 10.0718 12.0002 9.33325H10.6668ZM15.7942 12.143C16.7184 11.5519 17.3335 10.5146 17.3335 9.33325H16.0002C16.0002 10.0409 15.6331 10.6633 15.0758 11.0198L15.7942 12.143Z" fill="#8C9157"/>
<path fill-rule="evenodd" clip-rule="evenodd" d="M13.9998 10.6667C14.7362 10.6667 15.3332 9.77132 15.3332 8.66675C15.3332 7.56218 14.7362 6.66675 13.9998 6.66675C13.2635 6.66675 12.6665 7.56218 12.6665 8.66675C12.6665 9.77132 13.2635 10.6667 13.9998 10.6667Z" fill="#C59262"/>
</g>
</svg>
