<svg width="28" height="20" viewBox="0 0 28 20" fill="none" xmlns="http://www.w3.org/2000/svg">
<rect x="0.25" y="0.25" width="27.5" height="19.5" rx="1.75" fill="white" stroke="#F5F5F5" stroke-width="0.5"/>
<path fill-rule="evenodd" clip-rule="evenodd" d="M0 2C0 0.895431 0.89543 -1.06478e-09 2 0L2.46482 4.56679e-10C2.59643 5.84276e-10 2.7251 0.0389587 2.83462 0.111966L15.0026 8.22393C16.1002 8.9557 15.5822 10.6667 14.263 10.6667H8L15.9961 17.6632C16.9226 18.474 16.3492 20 15.1181 20H2C0.895428 20 0 19.1046 0 18V2Z" fill="white"/>
<mask id="mask0_704_32414" style="mask-type:luminance" maskUnits="userSpaceOnUse" x="0" y="0" width="17" height="20">
<path fill-rule="evenodd" clip-rule="evenodd" d="M0 2C0 0.895431 0.89543 -1.06478e-09 2 0L2.46482 4.56679e-10C2.59643 5.84276e-10 2.7251 0.0389587 2.83462 0.111966L15.0026 8.22393C16.1002 8.9557 15.5822 10.6667 14.263 10.6667H8L15.9961 17.6632C16.9226 18.474 16.3492 20 15.1181 20H2C0.895428 20 0 19.1046 0 18V2Z" fill="white"/>
</mask>
<g mask="url(#mask0_704_32414)">
<path d="M2.46484 0.666992L14.6328 8.77832C15.1816 9.1442 14.9223 10 14.2627 10H8C7.72226 10 7.47366 10.1726 7.37598 10.4326C7.27857 10.6923 7.35198 10.9851 7.56055 11.168L15.5566 18.165C16.0199 18.5704 15.7337 19.3329 15.1182 19.333H0.666992V0.666992H2.46484Z" fill="#EE1B44" stroke="#0543A8" stroke-width="1.33333" stroke-linejoin="round"/>
<path fill-rule="evenodd" clip-rule="evenodd" d="M6.8507 7.80065C7.23487 7.69538 7.58904 7.5514 7.90227 7.37598C7.59162 8.50435 6.55811 9.33317 5.33102 9.33317C4.10393 9.33317 3.07042 8.50435 2.75977 7.37598C3.07387 7.55188 3.42913 7.69618 3.81453 7.80152L4.3331 7.33335L3.48534 6.56799L4.62599 6.62625L4.56773 5.4856L5.3331 6.33335L6.09847 5.4856L6.04021 6.62625L7.18086 6.56799L6.3331 7.33335L6.8507 7.80065ZM4.31261 17.1302L5.3331 15.9998L6.35359 17.1302L6.27591 15.6093L7.79678 15.687L6.66643 14.6665L7.79678 13.646L6.27591 13.7237L6.35359 12.2028L5.3331 13.3332L4.31261 12.2028L4.39029 13.7237L2.86942 13.646L3.99977 14.6665L2.86942 15.687L4.39029 15.6093L4.31261 17.1302Z" fill="white"/>
</g>
</svg>
