<svg width="28" height="20" viewBox="0 0 28 20" fill="none" xmlns="http://www.w3.org/2000/svg">
<rect width="28" height="20" rx="2" fill="white"/>
<mask id="mask0_704_32396" style="mask-type:luminance" maskUnits="userSpaceOnUse" x="0" y="0" width="28" height="20">
<rect width="28" height="20" rx="2" fill="white"/>
</mask>
<g mask="url(#mask0_704_32396)">
<rect width="28" height="20" fill="#0A17A7"/>
<path d="M12.333 0.495117C12.333 0.683588 12.2536 0.861844 12.1162 0.987305L12.0537 1.03809L7.66699 4.1709V5.17969L11.7646 8.69238L11.8301 8.75879C12.1237 9.10471 11.8861 9.66675 11.4043 9.66699C11.3179 9.66699 11.2328 9.64666 11.1562 9.6084L11.082 9.56348L6.55859 6.33301H5.42871L0.176758 9.61621L-0.333008 9.93457V8.49512L-0.193359 8.39551L4.33301 5.16211V4.15234L-0.216797 0.25293L-0.901367 -0.333008H0.773438L0.860352 -0.271484L5.43945 3H6.57129L11.8232 -0.282227L12.333 -0.601562V0.495117Z" fill="#FF2E3B" stroke="white" stroke-width="0.666667"/>
<path fill-rule="evenodd" clip-rule="evenodd" d="M0 3.33333V6H4.66667V9.33333C4.66667 9.70152 4.96514 10 5.33333 10H6.66667C7.03486 10 7.33333 9.70152 7.33333 9.33333V6H12C12.3682 6 12.6667 5.70152 12.6667 5.33333V4C12.6667 3.63181 12.3682 3.33333 12 3.33333H7.33333V0H4.66667V3.33333H0Z" fill="white"/>
<path fill-rule="evenodd" clip-rule="evenodd" d="M0 4H5.33333V3.33333V0H6.66667V3.33333V4H12V5.33333H6.66667V6V9.33333H5.33333V6V5.33333H0V4Z" fill="#FF2E3B"/>
<path fill-rule="evenodd" clip-rule="evenodd" d="M19.9998 17.3333L19.057 17.6094L19.3332 16.6666L19.057 15.7238L19.9998 15.9999L20.9426 15.7238L20.6665 16.6666L20.9426 17.6094L19.9998 17.3333Z" fill="#CA1931"/>
<path fill-rule="evenodd" clip-rule="evenodd" d="M19.9998 4.66675L19.057 4.94289L19.3332 4.00008L19.057 3.05727L19.9998 3.33341L20.9426 3.05727L20.6665 4.00008L20.9426 4.94289L19.9998 4.66675Z" fill="#CA1931"/>
<path fill-rule="evenodd" clip-rule="evenodd" d="M23.9998 8.66675L23.057 8.94289L23.3332 8.00008L23.057 7.05727L23.9998 7.33341L24.9426 7.05727L24.6665 8.00008L24.9426 8.94289L23.9998 8.66675Z" fill="#CA1931"/>
<path fill-rule="evenodd" clip-rule="evenodd" d="M15.9998 10L15.057 10.2761L15.3332 9.33333L15.057 8.39052L15.9998 8.66667L16.9426 8.39052L16.6665 9.33333L16.9426 10.2761L15.9998 10Z" fill="#CA1931"/>
</g>
</svg>
