<svg width="28" height="20" viewBox="0 0 28 20" fill="none" xmlns="http://www.w3.org/2000/svg">
<rect x="0.25" y="0.25" width="27.5" height="19.5" rx="1.75" fill="white" stroke="#F5F5F5" stroke-width="0.5"/>
<mask id="mask0_704_33078" style="mask-type:luminance" maskUnits="userSpaceOnUse" x="0" y="0" width="28" height="20">
<rect x="0.25" y="0.25" width="27.5" height="19.5" rx="1.75" fill="white" stroke="white" stroke-width="0.5"/>
</mask>
<g mask="url(#mask0_704_33078)">
<path fill-rule="evenodd" clip-rule="evenodd" d="M0 5.33333H28V0H0V5.33333Z" fill="#D82332"/>
<path fill-rule="evenodd" clip-rule="evenodd" d="M0 20.0001H28V14.6667H0V20.0001Z" fill="#D82332"/>
<path fill-rule="evenodd" clip-rule="evenodd" d="M13.0672 10.7527L12.7827 11.018C13.0399 11.0901 13.3966 11.0061 13.5386 10.7527H13.0672Z" fill="#064A89"/>
<path fill-rule="evenodd" clip-rule="evenodd" d="M10.7725 10.9335C10.9649 11.126 11.2838 11.1035 11.4763 10.9817C11.6689 10.8598 11.8103 10.852 11.9303 10.8648C11.943 10.9734 11.9714 11.1127 12.0201 11.2503H10.8782C10.8498 11.1798 10.7945 11.0154 10.7725 10.9335Z" fill="#064A89"/>
<path fill-rule="evenodd" clip-rule="evenodd" d="M10.9839 11.4479C11.208 11.342 11.4371 11.426 11.5363 11.5023C11.7193 11.6435 12.0218 11.6052 12.1701 11.5251C12.2267 11.6175 12.2955 11.7083 12.3785 11.7777H11.1567C11.1071 11.6976 10.9998 11.5007 10.9839 11.4479Z" fill="#064A89"/>
<path fill-rule="evenodd" clip-rule="evenodd" d="M16.2978 12.325C16.3514 12.2704 16.424 12.1807 16.4714 12.1166C16.3925 12.1069 16.3007 12.0498 16.2032 12.0011C16.0232 11.9112 15.8512 11.9112 15.6981 12.0171C15.4709 12.1742 15.1868 12.2127 14.9658 12.0556C14.7234 11.8831 14.4987 11.9209 14.3093 12.03C14.1199 12.1389 14 12.1454 13.8863 12.1454C13.7727 12.1454 13.6528 12.1389 13.4634 12.03C13.274 11.9209 13.0493 11.8831 12.8069 12.0556C12.5859 12.2127 12.3018 12.1742 12.0746 12.0171C11.9215 11.9112 11.7495 11.9112 11.5695 12.0011C11.4719 12.0498 11.3802 12.1069 11.3013 12.1166C11.3487 12.1807 11.4213 12.2704 11.4749 12.325H16.2978Z" fill="#064A89"/>
<path fill-rule="evenodd" clip-rule="evenodd" d="M15.7065 12.8612C15.757 12.8292 15.896 12.7234 15.9654 12.6688C15.8896 12.6849 15.7169 12.6286 15.6277 12.5822C15.3688 12.4474 15.1984 12.4603 15.0059 12.5629C14.8133 12.6656 14.5419 12.7201 14.3431 12.6111C14.1442 12.5021 14.0021 12.4731 13.898 12.4731C13.7938 12.4731 13.6517 12.5021 13.4529 12.6111C13.2541 12.7201 12.9826 12.6656 12.79 12.5629C12.5976 12.4603 12.4272 12.4474 12.1682 12.5822C12.079 12.6286 11.9063 12.6849 11.8306 12.6688C11.9 12.7234 12.0389 12.8292 12.0894 12.8612H15.7065Z" fill="#064A89"/>
<path fill-rule="evenodd" clip-rule="evenodd" d="M14.5682 11.7952C14.5146 11.7663 14.4518 11.6991 14.3946 11.6129C14.303 11.4749 14.1578 11.3979 13.9401 11.3979C13.7223 11.3979 13.5771 11.4749 13.4856 11.6129C13.4283 11.6991 13.3656 11.7663 13.312 11.7952H14.5682Z" fill="#064A89"/>
<path fill-rule="evenodd" clip-rule="evenodd" d="M14.2101 11.3001C14.188 11.2616 14.1407 11.1396 14.125 11.0754C14.0744 11.0916 13.9766 11.0979 13.9198 11.0979C13.8629 11.0979 13.7652 11.0916 13.7146 11.0754C13.6988 11.1396 13.6515 11.2616 13.6294 11.3001H14.2101Z" fill="#064A89"/>
<path fill-rule="evenodd" clip-rule="evenodd" d="M14.7356 10.7527L15.02 11.018C14.7629 11.0901 14.4062 11.0061 14.2642 10.7527H14.7356Z" fill="#064A89"/>
<path fill-rule="evenodd" clip-rule="evenodd" d="M17.0992 10.9335C16.9067 11.126 16.5879 11.1035 16.3954 10.9817C16.2028 10.8598 16.0613 10.852 15.9413 10.8648C15.9285 10.9734 15.9002 11.1127 15.8516 11.2503H16.9935C17.0218 11.1798 17.0771 11.0154 17.0992 10.9335Z" fill="#064A89"/>
<path fill-rule="evenodd" clip-rule="evenodd" d="M16.9288 11.4479C16.7047 11.342 16.4756 11.426 16.3764 11.5023C16.1933 11.6435 15.8909 11.6052 15.7425 11.5251C15.6859 11.6175 15.6171 11.7083 15.5342 11.7777H16.756C16.8056 11.6976 16.913 11.5007 16.9288 11.4479Z" fill="#064A89"/>
<path fill-rule="evenodd" clip-rule="evenodd" d="M15.1588 13.0717C14.7761 13.2304 14.3572 13.318 13.9183 13.318C13.4789 13.318 13.0603 13.2305 12.6772 13.0714C12.7593 13.0619 12.8679 13.0217 12.9556 12.9721C13.0977 12.8919 13.3564 12.8759 13.4796 12.9561C13.6026 13.0363 13.751 13.1164 13.9183 13.1164C14.0856 13.1164 14.234 13.0363 14.357 12.9561C14.4801 12.8759 14.7389 12.8919 14.8811 12.9721C14.9686 13.0217 15.0767 13.0621 15.1588 13.0717Z" fill="#064A89"/>
<path fill-rule="evenodd" clip-rule="evenodd" d="M14.625 6.727C13.9338 6.5827 13.312 6.66604 13.312 7.32679C13.312 7.97464 13.312 8.93679 13.312 9.13571C13.312 9.33453 13.3159 9.35969 13.5487 9.41475C14.0537 9.53421 14.101 9.54625 14.6502 9.67442V7.81431C14.221 7.76614 14.0569 7.52141 14.0569 7.237C14.0569 6.9612 14.2462 6.78152 14.625 6.727Z" fill="#514537"/>
<path fill-rule="evenodd" clip-rule="evenodd" d="M12.8535 11.8285C12.4685 11.8285 12.0644 11.4885 12.0644 10.8406C12.0644 10.1927 12.0644 9.37804 12.0644 9.23051C12.0644 9.08459 12.0806 9.06406 12.0471 9.03008C12.0274 9.01008 12.0692 8.9804 12.0976 8.95148C12.1402 8.90814 12.1694 8.87212 12.1118 8.81352C12.0542 8.75502 12.0787 8.73976 12.115 8.70298C12.1513 8.66599 12.1655 8.62922 12.1308 8.59384C12.0961 8.55857 12.0881 8.54739 12.126 8.5089C12.1639 8.4704 12.1481 8.45438 12.1166 8.42223C12.085 8.39019 12.07 8.36696 12.1103 8.3261C12.1497 8.28599 12.1528 8.27954 12.1986 8.27954C12.2444 8.27954 12.3438 8.27954 12.388 8.27954C12.4323 8.27954 12.433 8.2932 12.3959 8.33094C12.3477 8.37976 12.3335 8.399 12.388 8.45438C12.4424 8.50965 12.4401 8.52814 12.4054 8.56341C12.3532 8.61632 12.3304 8.65244 12.3833 8.70621C12.4362 8.75986 12.4408 8.78395 12.4006 8.82481C12.3604 8.86567 12.3564 8.9018 12.4006 8.94664C12.4346 8.98115 12.4369 9.00126 12.4369 9.06212C12.4369 9.42943 12.4369 10.4301 12.4369 10.7059C12.4369 10.9817 12.6326 11.1485 13.0051 11.1485C13.3776 11.1485 13.5038 10.9945 13.6111 10.8919C13.5417 11.3858 13.3397 11.8285 12.8535 11.8285Z" fill="#514537"/>
<path fill-rule="evenodd" clip-rule="evenodd" d="M13.9406 10.2551C13.9926 10.271 14.0431 10.348 14.0431 10.4314H14.1458C14.1458 10.3609 14.1157 10.2518 14.0613 10.1844C14.0605 10.1668 14.0581 10.1516 14.0542 10.1363C14.0921 10.0882 14.1473 10.0112 14.1458 9.93742C14.1447 9.89086 14.0905 9.89258 14.0842 9.92946C14.079 9.95978 14.059 10.0064 14.0211 10.0225C14.0211 9.96312 13.9879 9.89258 13.9406 9.89258C13.8933 9.89258 13.86 9.96312 13.86 10.0225C13.8222 10.0064 13.8022 9.95978 13.797 9.92946C13.7906 9.89258 13.7363 9.89086 13.7354 9.93742C13.7338 10.0112 13.789 10.0882 13.8269 10.1363C13.823 10.1516 13.8207 10.1668 13.8198 10.1844C13.7654 10.2518 13.7354 10.3609 13.7354 10.4314H13.838C13.838 10.348 13.8885 10.271 13.9406 10.2551Z" fill="#514537"/>
<path fill-rule="evenodd" clip-rule="evenodd" d="M13.4113 10.2551C13.4633 10.271 13.5139 10.348 13.5139 10.4314H13.6165C13.6165 10.3609 13.5865 10.2518 13.532 10.1844C13.5313 10.1668 13.5288 10.1516 13.5249 10.1363C13.5628 10.0882 13.618 10.0112 13.6165 9.93742C13.6155 9.89086 13.5612 9.89258 13.5549 9.92946C13.5497 9.95978 13.5296 10.0064 13.4918 10.0225C13.4918 9.96312 13.4587 9.89258 13.4113 9.89258C13.364 9.89258 13.3309 9.96312 13.3309 10.0225C13.293 10.0064 13.2729 9.95978 13.2677 9.92946C13.2613 9.89258 13.2071 9.89086 13.2061 9.93742C13.2045 10.0112 13.2597 10.0882 13.2976 10.1363C13.2937 10.1516 13.2914 10.1668 13.2905 10.1844C13.2361 10.2518 13.2061 10.3609 13.2061 10.4314H13.3087C13.3087 10.348 13.3592 10.271 13.4113 10.2551Z" fill="#514537"/>
<path fill-rule="evenodd" clip-rule="evenodd" d="M12.8825 10.2551C12.9345 10.271 12.985 10.348 12.985 10.4314H13.0876C13.0876 10.3609 13.0576 10.2518 13.0032 10.1844C13.0024 10.1668 13 10.1516 12.9961 10.1363C13.034 10.0882 13.0892 10.0112 13.0876 9.93742C13.0866 9.89086 13.0324 9.89258 13.0261 9.92946C13.0209 9.95978 13.0008 10.0064 12.9629 10.0225C12.9629 9.96312 12.9298 9.89258 12.8825 9.89258C12.8351 9.89258 12.8019 9.96312 12.8019 10.0225C12.7641 10.0064 12.7441 9.95978 12.7389 9.92946C12.7325 9.89258 12.6782 9.89086 12.6773 9.93742C12.6757 10.0112 12.7309 10.0882 12.7688 10.1363C12.7649 10.1516 12.7625 10.1668 12.7617 10.1844C12.7072 10.2518 12.6773 10.3609 12.6773 10.4314H12.7798C12.7798 10.348 12.8304 10.271 12.8825 10.2551Z" fill="#514537"/>
<path fill-rule="evenodd" clip-rule="evenodd" d="M14.4694 10.2551C14.4173 10.271 14.3668 10.348 14.3668 10.4314H14.2642C14.2642 10.3609 14.2941 10.2518 14.3486 10.1844C14.3494 10.1668 14.3518 10.1516 14.3558 10.1363C14.3178 10.0882 14.2626 10.0112 14.2642 9.93742C14.2653 9.89086 14.3194 9.89258 14.3258 9.92946C14.331 9.95978 14.3511 10.0064 14.3888 10.0225C14.3888 9.96312 14.4221 9.89258 14.4694 9.89258C14.5168 9.89258 14.5499 9.96312 14.5499 10.0225C14.5877 10.0064 14.6078 9.95978 14.613 9.92946C14.6193 9.89258 14.6735 9.89086 14.6746 9.93742C14.6762 10.0112 14.6209 10.0882 14.583 10.1363C14.5869 10.1516 14.5894 10.1668 14.5901 10.1844C14.6446 10.2518 14.6746 10.3609 14.6746 10.4314H14.5719C14.5719 10.348 14.5214 10.271 14.4694 10.2551Z" fill="#514537"/>
<path fill-rule="evenodd" clip-rule="evenodd" d="M14.9987 10.2551C14.9466 10.271 14.8961 10.348 14.8961 10.4314H14.7935C14.7935 10.3609 14.8235 10.2518 14.8779 10.1844C14.8788 10.1668 14.8811 10.1516 14.885 10.1363C14.8471 10.0882 14.7919 10.0112 14.7935 9.93742C14.7944 9.89086 14.8487 9.89258 14.8551 9.92946C14.8603 9.95978 14.8803 10.0064 14.9181 10.0225C14.9181 9.96312 14.9514 9.89258 14.9987 9.89258C15.0461 9.89258 15.0792 9.96312 15.0792 10.0225C15.1171 10.0064 15.1371 9.95978 15.1423 9.92946C15.1486 9.89258 15.2028 9.89086 15.2039 9.93742C15.2054 10.0112 15.1502 10.0882 15.1123 10.1363C15.1162 10.1516 15.1186 10.1668 15.1194 10.1844C15.1739 10.2518 15.2039 10.3609 15.2039 10.4314H15.1013C15.1013 10.348 15.0507 10.271 14.9987 10.2551Z" fill="#514537"/>
<path fill-rule="evenodd" clip-rule="evenodd" d="M12.5713 10.5376H15.3489V10.6709H12.5713V10.5376Z" fill="#514537"/>
<path fill-rule="evenodd" clip-rule="evenodd" d="M15.0217 11.8285C15.4068 11.8285 15.8108 11.4885 15.8108 10.8406C15.8108 10.1927 15.8108 9.37804 15.8108 9.23051C15.8108 9.08459 15.7946 9.06406 15.8282 9.03008C15.8479 9.01008 15.8061 8.9804 15.7777 8.95148C15.7351 8.90814 15.7059 8.87212 15.7634 8.81352C15.8211 8.75502 15.7965 8.73976 15.7604 8.70298C15.7239 8.66599 15.7098 8.62922 15.7445 8.59384C15.7792 8.55857 15.7871 8.54739 15.7492 8.5089C15.7114 8.4704 15.7271 8.45438 15.7587 8.42223C15.7903 8.39019 15.8052 8.36696 15.765 8.3261C15.7255 8.28599 15.7225 8.27954 15.6766 8.27954C15.6308 8.27954 15.5315 8.27954 15.4872 8.27954C15.4431 8.27954 15.4423 8.2932 15.4794 8.33094C15.5275 8.37976 15.5417 8.399 15.4872 8.45438C15.4328 8.50965 15.4352 8.52814 15.4699 8.56341C15.522 8.61632 15.5448 8.65244 15.492 8.70621C15.4391 8.75986 15.4343 8.78395 15.4746 8.82481C15.5148 8.86567 15.5189 8.9018 15.4746 8.94664C15.4407 8.98115 15.4383 9.00126 15.4383 9.06212C15.4383 9.42943 15.4383 10.4301 15.4383 10.7059C15.4383 10.9817 15.2426 11.1485 14.8702 11.1485C14.4977 11.1485 14.3716 10.9945 14.2642 10.8919C14.3336 11.3858 14.5356 11.8285 15.0217 11.8285Z" fill="#514537"/>
<path fill-rule="evenodd" clip-rule="evenodd" d="M12.5713 9.67434C12.5713 9.67434 12.5714 9.57971 12.5714 9.4624L13.1266 9.67445L12.5713 9.67434Z" fill="#EEA339"/>
<path fill-rule="evenodd" clip-rule="evenodd" d="M11.9089 9.77297L10.6665 9.60276C10.7026 9.33222 10.7708 9.06846 10.869 8.81738L11.9089 9.23685V9.77297Z" fill="#EEA339"/>
<path fill-rule="evenodd" clip-rule="evenodd" d="M14.4761 7.69589L14.6969 6.77417C14.9553 6.83783 15.2066 6.93374 15.4446 7.06019L14.7324 8.44557L14.7349 7.74998C14.6527 7.75041 14.5266 7.73761 14.4761 7.69589Z" fill="#EEA339"/>
<path fill-rule="evenodd" clip-rule="evenodd" d="M11.9382 9.86298L10.6726 9.78491C10.6563 10.0546 10.6725 10.3267 10.7212 10.5952C10.7212 10.5952 11.9382 10.603 11.9382 10.5952V9.86298Z" fill="#EEA339"/>
<path fill-rule="evenodd" clip-rule="evenodd" d="M11.9256 8.99574C11.8846 8.94122 11.9099 8.91219 11.954 8.88327C11.9983 8.85445 11.9919 8.83197 11.9699 8.79036C11.9478 8.74864 11.9257 8.7037 11.9667 8.65886C12.0078 8.61391 11.9919 8.59466 11.9604 8.56262C11.9289 8.53058 11.9257 8.49531 11.954 8.46961C11.9825 8.44391 11.9762 8.42466 11.9573 8.39907C11.9383 8.37337 11.9011 8.32133 11.9344 8.28767L11.4181 7.84961C11.2475 8.05692 11.1015 8.28574 10.9839 8.53111L11.9256 8.99574Z" fill="#EEA339"/>
<path fill-rule="evenodd" clip-rule="evenodd" d="M13.1624 9.23445L12.547 8.62811C12.6338 8.53994 12.6425 8.52553 12.581 8.46295C12.5139 8.39478 12.5115 8.38768 12.648 8.24886C12.6945 8.20166 12.6685 8.16865 12.6023 8.16865C12.536 8.16865 12.2314 8.16865 12.1966 8.16865C12.1619 8.16865 12.1346 8.17047 12.1092 8.19628L11.6187 7.7137C11.8058 7.51789 12.0149 7.34703 12.2408 7.20435L13.1624 8.71026V9.23445Z" fill="#EEA339"/>
<path fill-rule="evenodd" clip-rule="evenodd" d="M12.5225 9.32685C12.5225 9.1762 12.5226 9.02706 12.5226 9.00588C12.5226 8.96093 12.5194 8.9433 12.4847 8.90803C12.45 8.87276 12.4674 8.85588 12.4942 8.81738L13.0779 9.31147V9.60158L12.5225 9.32685Z" fill="#EEA339"/>
<path fill-rule="evenodd" clip-rule="evenodd" d="M13.0696 8.44632C13.0696 8.15697 13.0696 7.88933 13.0696 7.73514C13.0696 7.27331 13.0951 7.04234 13.1613 6.99589L13.1083 6.77417C12.8492 6.84503 12.598 6.94094 12.3599 7.0674L13.0696 8.44632Z" fill="#EEA339"/>
<path fill-rule="evenodd" clip-rule="evenodd" d="M15.3488 9.67434C15.3488 9.67434 15.3487 9.57971 15.3487 9.4624L14.7935 9.67445L15.3488 9.67434Z" fill="#EEA339"/>
<path fill-rule="evenodd" clip-rule="evenodd" d="M15.9575 9.77297L17.2 9.60276C17.1639 9.33222 17.0956 9.06846 16.9974 8.81738L15.9575 9.23685V9.77297Z" fill="#EEA339"/>
<path fill-rule="evenodd" clip-rule="evenodd" d="M15.9575 9.86298L17.223 9.78491C17.2393 10.0546 17.2232 10.3267 17.1745 10.5952C17.1745 10.5952 15.9575 10.603 15.9575 10.5952V9.86298Z" fill="#EEA339"/>
<path fill-rule="evenodd" clip-rule="evenodd" d="M15.9174 8.99574C15.9585 8.94122 15.9331 8.91219 15.8889 8.88327C15.8447 8.85445 15.851 8.83197 15.8731 8.79036C15.8952 8.74864 15.9173 8.7037 15.8762 8.65886C15.8352 8.61391 15.851 8.59466 15.8826 8.56262C15.9141 8.53058 15.9173 8.49531 15.8889 8.46961C15.8605 8.44391 15.8668 8.42466 15.8856 8.39907C15.9047 8.37337 15.9417 8.32133 15.9086 8.28767L16.4249 7.84961C16.5955 8.05692 16.7414 8.28574 16.859 8.53111L15.9174 8.99574Z" fill="#EEA339"/>
<path fill-rule="evenodd" clip-rule="evenodd" d="M14.7935 9.23445L15.4088 8.62811C15.3219 8.53994 15.3132 8.52553 15.3748 8.46295C15.4419 8.39478 15.4444 8.38768 15.3078 8.24886C15.2612 8.20166 15.2873 8.16865 15.3536 8.16865C15.4198 8.16865 15.7245 8.16865 15.7592 8.16865C15.7939 8.16865 15.8212 8.17047 15.8466 8.19628L16.3372 7.7137C16.15 7.51789 15.9409 7.34703 15.715 7.20435L14.7935 8.71026V9.23445Z" fill="#EEA339"/>
<path fill-rule="evenodd" clip-rule="evenodd" d="M15.3489 9.32685C15.3489 9.1762 15.3488 9.02706 15.3488 9.00588C15.3488 8.96093 15.352 8.9433 15.3867 8.90803C15.4214 8.87276 15.404 8.85588 15.3772 8.81738L14.7935 9.31147V9.60158L15.3489 9.32685Z" fill="#EEA339"/>
<path fill-rule="evenodd" clip-rule="evenodd" d="M12.1479 9.03223C12.1701 9.0547 12.1796 9.07707 12.1796 9.13158C12.1796 9.1861 12.1796 10.3792 12.1796 10.8475C12.1796 11.4184 12.5204 11.7359 12.8708 11.7359C13.1927 11.7359 13.4042 11.4376 13.5147 11.0913C13.3727 11.2035 13.1644 11.2388 12.9654 11.2388C12.735 11.2388 12.3627 11.0817 12.3627 10.7417C12.3627 10.4274 12.3627 9.26309 12.3627 9.07707C12.3627 9.03223 12.3184 9.03223 12.1479 9.03223Z" fill="#D82332"/>
<path fill-rule="evenodd" clip-rule="evenodd" d="M14.1609 6.78402C13.7208 6.73875 13.3125 6.83176 13.3125 7.44186C13.3125 8.08337 13.3125 8.86584 13.3125 9.06283C13.3125 9.33348 13.2916 9.30133 13.5173 9.35821C13.9268 9.46143 13.9733 9.47455 14.47 9.58982V7.94057C14.0459 7.89337 13.862 7.61111 13.862 7.29853C13.862 7.04982 13.9702 6.81574 14.1609 6.78402Z" fill="#D82332"/>
<path fill-rule="evenodd" clip-rule="evenodd" d="M15.7369 9.03223C15.7148 9.0547 15.7052 9.07707 15.7052 9.13158C15.7052 9.1861 15.7052 10.3792 15.7052 10.8475C15.7052 11.4184 15.3644 11.7359 15.014 11.7359C14.6921 11.7359 14.4806 11.4376 14.3701 11.0913C14.5122 11.2035 14.7205 11.2388 14.9194 11.2388C15.1498 11.2388 15.5222 11.0817 15.5222 10.7417C15.5222 10.4274 15.5222 9.26309 15.5222 9.07707C15.5222 9.03223 15.5664 9.03223 15.7369 9.03223Z" fill="#D82332"/>
<mask id="mask1_704_33078" style="mask-type:luminance" maskUnits="userSpaceOnUse" x="10" y="6" width="8" height="8">
<path fill-rule="evenodd" clip-rule="evenodd" d="M13.9998 13.3334C15.8408 13.3334 17.3332 11.841 17.3332 10.0001C17.3332 8.15913 15.8408 6.66675 13.9998 6.66675C12.1589 6.66675 10.6665 8.15913 10.6665 10.0001C10.6665 11.841 12.1589 13.3334 13.9998 13.3334Z" fill="white"/>
</mask>
<g mask="url(#mask1_704_33078)">
<path fill-rule="evenodd" clip-rule="evenodd" d="M13.9998 18.6667C15.8408 18.6667 17.3332 17.1743 17.3332 15.3333C17.3332 13.4924 15.8408 12 13.9998 12C12.1589 12 10.6665 13.4924 10.6665 15.3333C10.6665 17.1743 12.1589 18.6667 13.9998 18.6667Z" fill="#064A89"/>
</g>
</g>
</svg>
