<svg width="28" height="20" viewBox="0 0 28 20" fill="none" xmlns="http://www.w3.org/2000/svg">
<rect width="28" height="20" rx="2" fill="white"/>
<mask id="mask0_704_32477" style="mask-type:luminance" maskUnits="userSpaceOnUse" x="0" y="0" width="28" height="20">
<rect width="28" height="20" rx="2" fill="white"/>
</mask>
<g mask="url(#mask0_704_32477)">
<rect width="28" height="20" fill="#262626"/>
<path fill-rule="evenodd" clip-rule="evenodd" d="M0 0H28V20L0 0Z" fill="#E8283F"/>
<path fill-rule="evenodd" clip-rule="evenodd" d="M6.66683 16.6667L5.72402 16.9429L6.00016 16.0001L5.72402 15.0573L6.66683 15.3334L7.60964 15.0573L7.3335 16.0001L7.60964 16.9429L6.66683 16.6667Z" fill="white"/>
<path fill-rule="evenodd" clip-rule="evenodd" d="M6.66683 8.66675L5.72402 8.94289L6.00016 8.00008L5.72402 7.05727L6.66683 7.33341L7.60964 7.05727L7.3335 8.00008L7.60964 8.94289L6.66683 8.66675Z" fill="white"/>
<path fill-rule="evenodd" clip-rule="evenodd" d="M3.33333 12L2.39052 12.2761L2.66667 11.3333L2.39052 10.3905L3.33333 10.6667L4.27614 10.3905L4 11.3333L4.27614 12.2761L3.33333 12Z" fill="white"/>
<path fill-rule="evenodd" clip-rule="evenodd" d="M9.33333 11.3333L8.39052 11.6094L8.66667 10.6666L8.39052 9.72378L9.33333 9.99992L10.2761 9.72378L10 10.6666L10.2761 11.6094L9.33333 11.3333Z" fill="white"/>
<path fill-rule="evenodd" clip-rule="evenodd" d="M18.861 9.26565C18.7014 9.16988 18.572 8.94428 18.572 8.76379L18.572 7.53507C18.572 7.35367 18.4415 7.25013 18.244 7.31596L17.4858 7.56869C17.3047 7.62908 17.0273 7.63452 16.8298 7.56869L16.0716 7.31596C15.8904 7.25557 15.8703 7.13059 16.0326 7.03321L17.8116 5.96582C17.9712 5.87005 18.0571 5.6619 17.9913 5.46441L17.7385 4.7062C17.6782 4.52505 17.7597 4.4217 17.9572 4.48753L18.7154 4.74027C18.8966 4.80065 19.1195 4.72288 19.2168 4.56058L20.2842 2.78159C20.38 2.62198 20.5011 2.62309 20.567 2.82058L20.8197 3.57879C20.8801 3.75994 20.8855 4.0373 20.8197 4.23479L20.567 4.993C20.5066 5.17415 20.6056 5.321 20.7861 5.321H22.0148C22.1962 5.321 22.4193 5.44773 22.5167 5.61002L23.5841 7.38901C23.6798 7.54863 23.6028 7.70896 23.4297 7.74357L21.7282 8.08389C21.5472 8.12009 21.3695 8.30408 21.3349 8.47717L20.9946 10.1787C20.9584 10.3597 20.8023 10.4304 20.64 10.333L18.861 9.26565Z" fill="#FFD84E"/>
</g>
</svg>
