<svg width="28" height="20" viewBox="0 0 28 20" fill="none" xmlns="http://www.w3.org/2000/svg">
<rect x="0.25" y="0.25" width="27.5" height="19.5" rx="1.75" fill="white" stroke="#F5F5F5" stroke-width="0.5"/>
<mask id="mask0_704_32457" style="mask-type:luminance" maskUnits="userSpaceOnUse" x="0" y="0" width="28" height="20">
<rect x="0.25" y="0.25" width="27.5" height="19.5" rx="1.75" fill="white" stroke="white" stroke-width="0.5"/>
</mask>
<g mask="url(#mask0_704_32457)">
<path fill-rule="evenodd" clip-rule="evenodd" d="M0 19.9999H28V9.33325H12.4444L13.3333 9.99992L0 19.9999Z" fill="#DD1C34"/>
<path fill-rule="evenodd" clip-rule="evenodd" d="M28 9.33333H12.4444L0 0H28V9.33333Z" fill="#0D4BC3"/>
<path fill-rule="evenodd" clip-rule="evenodd" d="M2.00016 4.00008C2.36835 4.00008 2.66683 3.7016 2.66683 3.33341C2.66683 2.96522 2.36835 2.66675 2.00016 2.66675C1.63197 2.66675 1.3335 2.96522 1.3335 3.33341C1.3335 3.7016 1.63197 4.00008 2.00016 4.00008ZM10.0002 10.6667C10.3684 10.6667 10.6668 10.3683 10.6668 10.0001C10.6668 9.63189 10.3684 9.33341 10.0002 9.33341C9.63197 9.33341 9.3335 9.63189 9.3335 10.0001C9.3335 10.3683 9.63197 10.6667 10.0002 10.6667ZM2.66683 16.6667C2.66683 17.0349 2.36835 17.3334 2.00016 17.3334C1.63197 17.3334 1.3335 17.0349 1.3335 16.6667C1.3335 16.2986 1.63197 16.0001 2.00016 16.0001C2.36835 16.0001 2.66683 16.2986 2.66683 16.6667ZM4.53224 11.3267L3.39122 13.0797L3.82395 11.0333C3.75431 10.9764 3.69054 10.9126 3.63366 10.843L1.58723 11.2757L3.3402 10.1347C3.33577 10.0904 3.3335 10.0455 3.3335 10.0001C3.3335 9.95465 3.33577 9.90975 3.3402 9.86549L1.58723 8.72447L3.63366 9.1572C3.69054 9.08757 3.75431 9.02379 3.82395 8.96691L3.39122 6.92048L4.53224 8.67346C4.5765 8.66902 4.6214 8.66675 4.66683 8.66675C4.71226 8.66675 4.75716 8.66902 4.80142 8.67346L5.94244 6.92048L5.50971 8.96691C5.57934 9.02379 5.64312 9.08757 5.7 9.1572L7.74643 8.72447L5.99345 9.86549C5.99789 9.90975 6.00016 9.95465 6.00016 10.0001C6.00016 10.0455 5.99789 10.0904 5.99345 10.1347L7.74643 11.2757L5.7 10.843C5.64312 10.9126 5.57934 10.9764 5.50971 11.0333L5.94244 13.0797L4.80142 11.3267C4.75716 11.3311 4.71226 11.3334 4.66683 11.3334C4.6214 11.3334 4.5765 11.3311 4.53224 11.3267Z" fill="#FDD64D"/>
</g>
</svg>
