<svg width="28" height="20" viewBox="0 0 28 20" fill="none" xmlns="http://www.w3.org/2000/svg">
<rect width="28" height="20" rx="2" fill="white"/>
<mask id="mask0_704_32059" style="mask-type:luminance" maskUnits="userSpaceOnUse" x="0" y="0" width="28" height="20">
<rect width="28" height="20" rx="2" fill="white"/>
</mask>
<g mask="url(#mask0_704_32059)">
<rect width="28" height="20" fill="#128C4B"/>
<path fill-rule="evenodd" clip-rule="evenodd" d="M6.6665 11.9999H17.3332V11.0786C17.3332 10.583 17.8547 10.2607 18.298 10.4823L18.6665 10.6666V11.9999H20.6665C21.0347 11.9999 21.3332 12.2984 21.3332 12.6666V13.3332C21.3332 14.0696 20.7362 14.6666 19.9998 14.6666H17.9998C17.6316 14.6666 17.3332 14.3681 17.3332 13.9999V13.3332H8.27598C8.09917 13.3332 7.9296 13.263 7.80458 13.138L6.6665 11.9999Z" fill="white"/>
<path fill-rule="evenodd" clip-rule="evenodd" d="M6.6665 8.13799C6.6665 8.04958 6.70162 7.9648 6.76413 7.90229L7.09747 7.56895C7.22764 7.43878 7.22764 7.22772 7.09747 7.09755L6.76414 6.76422C6.70162 6.7017 6.6665 6.61692 6.6665 6.52851V5.66659C6.6665 5.48249 6.81574 5.33325 6.99984 5.33325H7.74519C7.88583 5.33325 7.99984 5.44726 7.99984 5.5879C7.99984 5.8566 8.36207 5.94211 8.48224 5.70178L8.58162 5.50301C8.63364 5.39897 8.73998 5.33325 8.8563 5.33325H10.3332C10.5173 5.33325 10.6665 5.48249 10.6665 5.66659C10.6665 5.85068 10.5173 5.99992 10.3332 5.99992H9.6665C9.48241 5.99992 9.33317 6.14916 9.33317 6.33325C9.33317 6.51735 9.48241 6.66659 9.6665 6.66659H10.3332C10.5173 6.66659 10.6665 6.81582 10.6665 6.99992V8.99992C10.6665 9.18401 10.5173 9.33325 10.3332 9.33325H9.6665C9.48241 9.33325 9.33317 9.18401 9.33317 8.99992V8.33325C9.33317 8.14916 9.48241 7.99992 9.6665 7.99992C9.8506 7.99992 9.99984 7.85068 9.99984 7.66659C9.99984 7.48249 9.8506 7.33325 9.6665 7.33325H8.99984C8.81574 7.33325 8.6665 7.48249 8.6665 7.66659V8.99992C8.6665 9.18401 8.51727 9.33325 8.33317 9.33325C8.14908 9.33325 7.99984 9.18401 7.99984 8.99992V8.33325C7.99984 8.14916 7.8506 7.99992 7.6665 7.99992C7.48241 7.99992 7.33317 8.14916 7.33317 8.33325V8.99992C7.33317 9.18401 7.18393 9.33325 6.99984 9.33325C6.81574 9.33325 6.6665 9.18401 6.6665 8.99992V8.13799Z" fill="white"/>
<path fill-rule="evenodd" clip-rule="evenodd" d="M17.3335 8.13799C17.3335 8.04958 17.3686 7.9648 17.4311 7.90229L17.7645 7.56895C17.8946 7.43878 17.8946 7.22772 17.7645 7.09755L17.4311 6.76422C17.3686 6.7017 17.3335 6.61692 17.3335 6.52851V5.66659C17.3335 5.48249 17.4827 5.33325 17.6668 5.33325H18.4122C18.5528 5.33325 18.6668 5.44726 18.6668 5.5879C18.6668 5.8566 19.0291 5.94211 19.1492 5.70178L19.2486 5.50301C19.3006 5.39897 19.407 5.33325 19.5233 5.33325H21.0002C21.1843 5.33325 21.3335 5.48249 21.3335 5.66659C21.3335 5.85068 21.1843 5.99992 21.0002 5.99992H20.3335C20.1494 5.99992 20.0002 6.14916 20.0002 6.33325C20.0002 6.51735 20.1494 6.66659 20.3335 6.66659H21.0002C21.1843 6.66659 21.3335 6.81582 21.3335 6.99992V8.99992C21.3335 9.18401 21.1843 9.33325 21.0002 9.33325H20.3335C20.1494 9.33325 20.0002 9.18401 20.0002 8.99992V8.33325C20.0002 8.14916 20.1494 7.99992 20.3335 7.99992C20.5176 7.99992 20.6668 7.85068 20.6668 7.66659C20.6668 7.48249 20.5176 7.33325 20.3335 7.33325H19.6668C19.4827 7.33325 19.3335 7.48249 19.3335 7.66659V8.99992C19.3335 9.18401 19.1843 9.33325 19.0002 9.33325C18.8161 9.33325 18.6668 9.18401 18.6668 8.99992V8.33325C18.6668 8.14916 18.5176 7.99992 18.3335 7.99992C18.1494 7.99992 18.0002 8.14916 18.0002 8.33325V8.99992C18.0002 9.18401 17.8509 9.33325 17.6668 9.33325C17.4827 9.33325 17.3335 9.18401 17.3335 8.99992V8.13799Z" fill="white"/>
<path fill-rule="evenodd" clip-rule="evenodd" d="M16 6.33013C16 6.51595 15.8958 6.77075 15.7593 6.90727L15.574 7.09257C15.4411 7.22549 15.4375 7.43742 15.574 7.57393L15.7593 7.75924C15.8922 7.89216 16 8.14261 16 8.33637V8.9968C16 9.18262 15.8573 9.33325 15.6635 9.33325H15.0031C14.8173 9.33325 14.6667 9.19056 14.6667 8.9968V8.33637C14.6667 8.15056 14.6051 8.12297 14.512 8.30916L14.1546 9.02401C14.0692 9.1948 13.8431 9.33325 13.6697 9.33325H12.3303C12.1479 9.33325 12 9.17863 12 8.99992C12 8.81582 12.1427 8.66659 12.3365 8.66659H12.9969C13.1827 8.66659 13.3333 8.51196 13.3333 8.33325C13.3333 8.14916 13.1906 7.99992 12.9969 7.99992H12.3365C12.1506 7.99992 12 7.85655 12 7.67293V5.66024C12 5.47965 12.1427 5.33325 12.3365 5.33325H12.9969C13.1827 5.33325 13.3333 5.47594 13.3333 5.66971V6.33013C13.3333 6.51595 13.1787 6.66659 13 6.66659C12.8159 6.66659 12.6667 6.82121 12.6667 6.99992C12.6667 7.18401 12.8094 7.33325 13.0031 7.33325H13.6635C13.8494 7.33325 14 7.17632 14 7.00299V5.66351C14 5.48111 14.1546 5.33325 14.3333 5.33325C14.5174 5.33325 14.6667 5.47594 14.6667 5.66971V6.33013C14.6667 6.51595 14.8213 6.66659 15 6.66659C15.1841 6.66659 15.3333 6.5239 15.3333 6.33013V5.66971C15.3333 5.48389 15.488 5.33325 15.6667 5.33325C15.8508 5.33325 16 5.47594 16 5.66971V6.33013Z" fill="white"/>
</g>
</svg>
