<svg width="28" height="20" viewBox="0 0 28 20" fill="none" xmlns="http://www.w3.org/2000/svg">
<rect x="0.25" y="0.25" width="27.5" height="19.5" rx="1.75" fill="white" stroke="#F5F5F5" stroke-width="0.5"/>
<mask id="mask0_704_32641" style="mask-type:luminance" maskUnits="userSpaceOnUse" x="0" y="0" width="28" height="20">
<rect x="0.25" y="0.25" width="27.5" height="19.5" rx="1.75" fill="white" stroke="white" stroke-width="0.5"/>
</mask>
<g mask="url(#mask0_704_32641)">
<path fill-rule="evenodd" clip-rule="evenodd" d="M0 10.6667H28V0H0V10.6667Z" fill="#E12237"/>
<path fill-rule="evenodd" clip-rule="evenodd" d="M6.6665 9.33325C7.61161 9.33325 8.48017 9.00547 9.16468 8.4574C8.80208 8.59265 8.40959 8.66658 7.99984 8.66658C6.15889 8.66658 4.6665 7.1742 4.6665 5.33325C4.6665 3.4923 6.15889 1.99992 7.99984 1.99992C8.40959 1.99992 8.80208 2.07385 9.16468 2.20911C8.48017 1.66103 7.61161 1.33325 6.6665 1.33325C4.45736 1.33325 2.6665 3.12411 2.6665 5.33325C2.6665 7.54239 4.45736 9.33325 6.6665 9.33325ZM7.99984 4.66659C7.99984 5.03478 7.70136 5.33325 7.33317 5.33325C6.96498 5.33325 6.6665 5.03478 6.6665 4.66659C6.6665 4.2984 6.96498 3.99992 7.33317 3.99992C7.70136 3.99992 7.99984 4.2984 7.99984 4.66659ZM8.6665 7.99992C9.03469 7.99992 9.33317 7.70144 9.33317 7.33325C9.33317 6.96506 9.03469 6.66659 8.6665 6.66659C8.29831 6.66659 7.99984 6.96506 7.99984 7.33325C7.99984 7.70144 8.29831 7.99992 8.6665 7.99992ZM11.9998 7.33325C11.9998 7.70144 11.7014 7.99992 11.3332 7.99992C10.965 7.99992 10.6665 7.70144 10.6665 7.33325C10.6665 6.96506 10.965 6.66659 11.3332 6.66659C11.7014 6.66659 11.9998 6.96506 11.9998 7.33325ZM12.6665 5.33325C13.0347 5.33325 13.3332 5.03478 13.3332 4.66659C13.3332 4.2984 13.0347 3.99992 12.6665 3.99992C12.2983 3.99992 11.9998 4.2984 11.9998 4.66659C11.9998 5.03478 12.2983 5.33325 12.6665 5.33325ZM10.6665 2.66659C10.6665 3.03478 10.368 3.33325 9.99984 3.33325C9.63165 3.33325 9.33317 3.03478 9.33317 2.66659C9.33317 2.2984 9.63165 1.99992 9.99984 1.99992C10.368 1.99992 10.6665 2.2984 10.6665 2.66659Z" fill="white"/>
</g>
</svg>
