<svg width="28" height="20" viewBox="0 0 28 20" fill="none" xmlns="http://www.w3.org/2000/svg">
<rect width="28" height="20" rx="2" fill="white"/>
<mask id="mask0_704_32675" style="mask-type:luminance" maskUnits="userSpaceOnUse" x="0" y="0" width="28" height="20">
<rect width="28" height="20" rx="2" fill="white"/>
</mask>
<g mask="url(#mask0_704_32675)">
<rect width="28" height="20" fill="url(#paint0_linear_704_32675)"/>
<path fill-rule="evenodd" clip-rule="evenodd" d="M17.3335 9.99992C17.3335 8.90618 17.3335 7.61306 17.3335 6.66574C17.3335 5.92936 17.9304 5.33325 18.6668 5.33325H22.6668C23.4032 5.33325 24.0002 5.92936 24.0002 6.66574C24.0002 7.61306 24.0002 8.90618 24.0002 9.99992C24.0002 13.3333 20.6668 14.6666 20.6668 14.6666C20.6668 14.6666 17.3335 13.3333 17.3335 9.99992Z" fill="#8FC5FF"/>
<mask id="mask1_704_32675" style="mask-type:luminance" maskUnits="userSpaceOnUse" x="17" y="5" width="7" height="10">
<path fill-rule="evenodd" clip-rule="evenodd" d="M17.3335 9.99992C17.3335 8.90618 17.3335 7.61306 17.3335 6.66574C17.3335 5.92936 17.9304 5.33325 18.6668 5.33325H22.6668C23.4032 5.33325 24.0002 5.92936 24.0002 6.66574C24.0002 7.61306 24.0002 8.90618 24.0002 9.99992C24.0002 13.3333 20.6668 14.6666 20.6668 14.6666C20.6668 14.6666 17.3335 13.3333 17.3335 9.99992Z" fill="white"/>
</mask>
<g mask="url(#mask1_704_32675)">
<path fill-rule="evenodd" clip-rule="evenodd" d="M20.0902 11.8835C20.0902 11.8835 20.7575 11.0194 21.15 11.0194C21.5425 11.0194 21.6146 11.5931 22.2182 11.5931C22.8217 11.5931 23.14 10.6787 23.7214 10.6787C24.3028 10.6787 23.7214 13.6788 23.7214 13.6788L22.9336 14.4913L18.3223 15.0239L20.0902 11.8835Z" fill="#366CC9"/>
<path fill-rule="evenodd" clip-rule="evenodd" d="M18.1262 10.5512L18.7147 10L19.293 11.4157L20.0693 10L20.7369 14.0354L19.6266 13.8095L16 12.1514L18.1262 10.5512Z" fill="#CF6200"/>
<rect x="17.3335" y="5.33325" width="6.66667" height="4" fill="#FFFF00"/>
</g>
<path d="M18.6665 5.66626H22.6665C23.2189 5.66626 23.6663 6.11348 23.6665 6.66528V10.0002C23.6664 11.5425 22.8992 12.6256 22.1108 13.3352C21.7163 13.6903 21.32 13.9481 21.0229 14.1165C20.8749 14.2003 20.7519 14.2612 20.6675 14.301H20.6655C20.581 14.2612 20.4581 14.2003 20.3101 14.1165C20.013 13.9481 19.6176 13.6902 19.2231 13.3352C18.4347 12.6256 17.6666 11.5427 17.6665 10.0002V6.66528C17.6667 6.11359 18.1142 5.66644 18.6665 5.66626Z" stroke="white" stroke-width="0.666667"/>
<mask id="mask2_704_32675" style="mask-type:luminance" maskUnits="userSpaceOnUse" x="17" y="5" width="7" height="10">
<path d="M18.6665 5.66626H22.6665C23.2189 5.66626 23.6663 6.11348 23.6665 6.66528V10.0002C23.6664 11.5425 22.8992 12.6256 22.1108 13.3352C21.7163 13.6903 21.32 13.9481 21.0229 14.1165C20.8749 14.2003 20.7519 14.2612 20.6675 14.301H20.6655C20.581 14.2612 20.4581 14.2003 20.3101 14.1165C20.013 13.9481 19.6176 13.6902 19.2231 13.3352C18.4347 12.6256 17.6666 11.5427 17.6665 10.0002V6.66528C17.6667 6.11359 18.1142 5.66644 18.6665 5.66626Z" fill="white" stroke="white" stroke-width="0.666667"/>
</mask>
<g mask="url(#mask2_704_32675)">
</g>
<path d="M12.333 0.495117C12.333 0.683588 12.2536 0.861844 12.1162 0.987305L12.0537 1.03809L7.66699 4.1709V5.17969L11.7646 8.69238L11.8301 8.75879C12.1237 9.10471 11.8861 9.66675 11.4043 9.66699C11.3179 9.66699 11.2328 9.64666 11.1562 9.6084L11.082 9.56348L6.55859 6.33301H5.42871L0.176758 9.61621L-0.333008 9.93457V8.49512L-0.193359 8.39551L4.33301 5.16211V4.15234L-0.216797 0.25293L-0.901367 -0.333008H0.773438L0.860352 -0.271484L5.43945 3H6.57129L11.8232 -0.282227L12.333 -0.601562V0.495117Z" fill="#DB1E36" stroke="white" stroke-width="0.666667"/>
<path fill-rule="evenodd" clip-rule="evenodd" d="M0 3.33333V6H4.66667V9.33333C4.66667 9.70152 4.96514 10 5.33333 10H6.66667C7.03486 10 7.33333 9.70152 7.33333 9.33333V6H12C12.3682 6 12.6667 5.70152 12.6667 5.33333V4C12.6667 3.63181 12.3682 3.33333 12 3.33333H7.33333V0H4.66667V3.33333H0Z" fill="white"/>
<path fill-rule="evenodd" clip-rule="evenodd" d="M0 4H5.33333V3.33333V0H6.66667V3.33333V4H12V5.33333H6.66667V6V9.33333H5.33333V6V5.33333H0V4Z" fill="#DB1E36"/>
</g>
<defs>
<linearGradient id="paint0_linear_704_32675" x1="0" y1="0" x2="0" y2="20" gradientUnits="userSpaceOnUse">
<stop stop-color="#07319C"/>
<stop offset="1" stop-color="#00247E"/>
</linearGradient>
</defs>
</svg>
