<svg width="28" height="20" viewBox="0 0 28 20" fill="none" xmlns="http://www.w3.org/2000/svg">
<rect x="0.25" y="0.25" width="27.5" height="19.5" rx="1.75" fill="white" stroke="#F5F5F5" stroke-width="0.5"/>
<mask id="mask0_704_32604" style="mask-type:luminance" maskUnits="userSpaceOnUse" x="0" y="0" width="28" height="20">
<rect x="0.25" y="0.25" width="27.5" height="19.5" rx="1.75" fill="white" stroke="white" stroke-width="0.5"/>
</mask>
<g mask="url(#mask0_704_32604)">
<path fill-rule="evenodd" clip-rule="evenodd" d="M0 19.9999H28V13.3333H0V19.9999Z" fill="#262626"/>
<path fill-rule="evenodd" clip-rule="evenodd" d="M0 6.66667H28V0H0V6.66667Z" fill="#E32139"/>
<path fill-rule="evenodd" clip-rule="evenodd" d="M9.33317 11.0933L7.76574 12.1573L8.29335 10.3378L6.79702 9.17587L8.69053 9.11539L9.33317 7.33325L9.97582 9.11539L11.8693 9.17587L10.373 10.3378L10.9006 12.1573L9.33317 11.0933Z" fill="#128A49"/>
<path fill-rule="evenodd" clip-rule="evenodd" d="M18.6667 11.0933L17.0992 12.1573L17.6268 10.3378L16.1305 9.17587L18.024 9.11539L18.6667 7.33325L19.3093 9.11539L21.2028 9.17587L19.7065 10.3378L20.2341 12.1573L18.6667 11.0933Z" fill="#128A49"/>
</g>
</svg>
