<svg width="28" height="20" viewBox="0 0 28 20" fill="none" xmlns="http://www.w3.org/2000/svg">
<rect width="28" height="20" rx="2" fill="white"/>
<mask id="mask0_704_32768" style="mask-type:luminance" maskUnits="userSpaceOnUse" x="0" y="0" width="28" height="20">
<rect width="28" height="20" rx="2" fill="white"/>
</mask>
<g mask="url(#mask0_704_32768)">
<rect width="28" height="20" fill="#07319C"/>
<path d="M18.6665 5.66626H22.6665C23.2189 5.66626 23.6663 6.11348 23.6665 6.66528V10.0002C23.6664 11.5425 22.8992 12.6256 22.1108 13.3352C21.7163 13.6903 21.32 13.9481 21.0229 14.1165C20.8749 14.2003 20.7519 14.2612 20.6675 14.301H20.6655C20.581 14.2612 20.4581 14.2003 20.3101 14.1165C20.013 13.9481 19.6176 13.6902 19.2231 13.3352C18.4347 12.6256 17.6666 11.5427 17.6665 10.0002V6.66528C17.6667 6.11359 18.1142 5.66644 18.6665 5.66626Z" fill="#FFD033" stroke="white" stroke-width="0.666667"/>
<mask id="mask1_704_32768" style="mask-type:luminance" maskUnits="userSpaceOnUse" x="17" y="5" width="7" height="10">
<path d="M18.6665 5.66626H22.6665C23.2189 5.66626 23.6663 6.11348 23.6665 6.66528V10.0002C23.6664 11.5425 22.8992 12.6256 22.1108 13.3352C21.7163 13.6903 21.32 13.9481 21.0229 14.1165C20.8749 14.2003 20.7519 14.2612 20.6675 14.301H20.6655C20.581 14.2612 20.4581 14.2003 20.3101 14.1165C20.013 13.9481 19.6176 13.6902 19.2231 13.3352C18.4347 12.6256 17.6666 11.5427 17.6665 10.0002V6.66528C17.6667 6.11359 18.1142 5.66644 18.6665 5.66626Z" fill="white" stroke="white" stroke-width="0.666667"/>
</mask>
<g mask="url(#mask1_704_32768)">
<path fill-rule="evenodd" clip-rule="evenodd" d="M22.0002 9.33317C22.3684 9.33317 22.6668 8.73622 22.6668 7.99984C22.6668 7.26346 22.3684 6.6665 22.0002 6.6665C21.632 6.6665 21.3335 7.26346 21.3335 7.99984C21.3335 8.73622 21.632 9.33317 22.0002 9.33317Z" fill="#BA5B1F"/>
<path fill-rule="evenodd" clip-rule="evenodd" d="M19.5385 9.29297C19.8845 9.16704 19.9608 8.504 19.709 7.81203C19.4571 7.12006 18.9724 6.66119 18.6265 6.78712C18.2805 6.91305 18.2042 7.57609 18.456 8.26806C18.7079 8.96003 19.1925 9.4189 19.5385 9.29297Z" fill="#FF9F3E"/>
<path fill-rule="evenodd" clip-rule="evenodd" d="M19.0519 9.27083C19.3856 9.42644 19.9084 9.01155 20.2196 8.34417C20.5308 7.67678 20.5126 7.00961 20.1789 6.85401C19.8452 6.69841 19.3224 7.11329 19.0112 7.78068C18.7 8.44806 18.7182 9.11523 19.0519 9.27083Z" fill="#FF937F"/>
<path fill-rule="evenodd" clip-rule="evenodd" d="M20 10.6666L20.6667 9.33325L21.3333 10.6666V11.9999H20V10.6666Z" fill="#01A827"/>
</g>
<path d="M12.333 0.495117C12.333 0.683588 12.2536 0.861844 12.1162 0.987305L12.0537 1.03809L7.66699 4.1709V5.17969L11.7646 8.69238L11.8301 8.75879C12.1237 9.10471 11.8861 9.66675 11.4043 9.66699C11.3179 9.66699 11.2328 9.64666 11.1562 9.6084L11.082 9.56348L6.55859 6.33301H5.42871L0.176758 9.61621L-0.333008 9.93457V8.49512L-0.193359 8.39551L4.33301 5.16211V4.15234L-0.216797 0.25293L-0.901367 -0.333008H0.773438L0.860352 -0.271484L5.43945 3H6.57129L11.8232 -0.282227L12.333 -0.601562V0.495117Z" fill="#DB1E36" stroke="white" stroke-width="0.666667"/>
<path fill-rule="evenodd" clip-rule="evenodd" d="M0 3.33333V6H4.66667V9.33333C4.66667 9.70152 4.96514 10 5.33333 10H6.66667C7.03486 10 7.33333 9.70152 7.33333 9.33333V6H12C12.3682 6 12.6667 5.70152 12.6667 5.33333V4C12.6667 3.63181 12.3682 3.33333 12 3.33333H7.33333V0H4.66667V3.33333H0Z" fill="white"/>
<path fill-rule="evenodd" clip-rule="evenodd" d="M0 4H5.33333V3.33333V0H6.66667V3.33333V4H12V5.33333H6.66667V6V9.33333H5.33333V6V5.33333H0V4Z" fill="#DB1E36"/>
</g>
</svg>
