<svg width="28" height="20" viewBox="0 0 28 20" fill="none" xmlns="http://www.w3.org/2000/svg">
<rect width="28" height="20" rx="2" fill="white"/>
<mask id="mask0_704_32798" style="mask-type:luminance" maskUnits="userSpaceOnUse" x="0" y="0" width="28" height="20">
<rect width="28" height="20" rx="2" fill="white"/>
</mask>
<g mask="url(#mask0_704_32798)">
<path fill-rule="evenodd" clip-rule="evenodd" d="M0 20H28V0H0V20Z" fill="#30C375"/>
<rect x="4" width="4" height="20" fill="#DE414F"/>
<path fill-rule="evenodd" clip-rule="evenodd" d="M6 3.99992C7.10457 3.99992 8 3.40297 8 2.66659C8 1.93021 7.10457 1.33325 6 1.33325C4.89543 1.33325 4 1.93021 4 2.66659C4 3.40297 4.89543 3.99992 6 3.99992Z" fill="white"/>
<mask id="mask1_704_32798" style="mask-type:luminance" maskUnits="userSpaceOnUse" x="4" y="1" width="4" height="3">
<path fill-rule="evenodd" clip-rule="evenodd" d="M6 3.99992C7.10457 3.99992 8 3.40297 8 2.66659C8 1.93021 7.10457 1.33325 6 1.33325C4.89543 1.33325 4 1.93021 4 2.66659C4 3.40297 4.89543 3.99992 6 3.99992Z" fill="white"/>
</mask>
<g mask="url(#mask1_704_32798)">
<path fill-rule="evenodd" clip-rule="evenodd" d="M6.00016 3.33333C6.36835 3.33333 6.66683 3.03486 6.66683 2.66667C6.66683 2.29848 6.36835 2 6.00016 2C5.63197 2 5.3335 2.29848 5.3335 2.66667C5.3335 3.03486 5.63197 3.33333 6.00016 3.33333Z" fill="#DD404F"/>
<rect x="4" y="1.33325" width="2" height="1.33333" fill="#FBAF29"/>
<rect x="6" y="2.6665" width="2" height="1.33333" fill="#FBAF29"/>
</g>
<path fill-rule="evenodd" clip-rule="evenodd" d="M6 18.6667C7.10457 18.6667 8 18.0697 8 17.3333C8 16.597 7.10457 16 6 16C4.89543 16 4 16.597 4 17.3333C4 18.0697 4.89543 18.6667 6 18.6667Z" fill="white"/>
<mask id="mask2_704_32798" style="mask-type:luminance" maskUnits="userSpaceOnUse" x="4" y="16" width="4" height="3">
<path fill-rule="evenodd" clip-rule="evenodd" d="M6 18.6667C7.10457 18.6667 8 18.0697 8 17.3333C8 16.597 7.10457 16 6 16C4.89543 16 4 16.597 4 17.3333C4 18.0697 4.89543 18.6667 6 18.6667Z" fill="white"/>
</mask>
<g mask="url(#mask2_704_32798)">
<path fill-rule="evenodd" clip-rule="evenodd" d="M6.00016 18.0001C6.36835 18.0001 6.66683 17.7016 6.66683 17.3334C6.66683 16.9652 6.36835 16.6667 6.00016 16.6667C5.63197 16.6667 5.3335 16.9652 5.3335 17.3334C5.3335 17.7016 5.63197 18.0001 6.00016 18.0001Z" fill="#DD404F"/>
<rect x="4" y="16" width="2" height="1.33333" fill="#FBAF29"/>
<rect x="6" y="17.3333" width="2" height="1.33333" fill="#FBAF29"/>
</g>
<path fill-rule="evenodd" clip-rule="evenodd" d="M6 11.9999C7.10457 11.9999 8 11.403 8 10.6666C8 9.93021 7.10457 9.33325 6 9.33325C4.89543 9.33325 4 9.93021 4 10.6666C4 11.403 4.89543 11.9999 6 11.9999Z" fill="#28AE67"/>
<mask id="mask3_704_32798" style="mask-type:luminance" maskUnits="userSpaceOnUse" x="4" y="9" width="4" height="3">
<path fill-rule="evenodd" clip-rule="evenodd" d="M6 11.9999C7.10457 11.9999 8 11.403 8 10.6666C8 9.93021 7.10457 9.33325 6 9.33325C4.89543 9.33325 4 9.93021 4 10.6666C4 11.403 4.89543 11.9999 6 11.9999Z" fill="white"/>
</mask>
<g mask="url(#mask3_704_32798)">
<path fill-rule="evenodd" clip-rule="evenodd" d="M5.99984 11.3333C6.73622 11.3333 7.33317 11.0349 7.33317 10.6667C7.33317 10.2985 6.73622 10 5.99984 10C5.26346 10 4.6665 10.2985 4.6665 10.6667C4.6665 11.0349 5.26346 11.3333 5.99984 11.3333Z" fill="#DD404F"/>
</g>
<path fill-rule="evenodd" clip-rule="evenodd" d="M6 14.6666C7.10457 14.6666 8 14.3681 8 13.9999C8 13.6317 7.10457 13.3333 6 13.3333C4.89543 13.3333 4 13.6317 4 13.9999C4 14.3681 4.89543 14.6666 6 14.6666Z" fill="#28AE67"/>
<mask id="mask4_704_32798" style="mask-type:luminance" maskUnits="userSpaceOnUse" x="4" y="13" width="4" height="2">
<path fill-rule="evenodd" clip-rule="evenodd" d="M6 14.6666C7.10457 14.6666 8 14.3681 8 13.9999C8 13.6317 7.10457 13.3333 6 13.3333C4.89543 13.3333 4 13.6317 4 13.9999C4 14.3681 4.89543 14.6666 6 14.6666Z" fill="white"/>
</mask>
<g mask="url(#mask4_704_32798)">
</g>
<path fill-rule="evenodd" clip-rule="evenodd" d="M6 7.99992C7.10457 7.99992 8 7.40297 8 6.66659C8 5.93021 7.10457 5.33325 6 5.33325C4.89543 5.33325 4 5.93021 4 6.66659C4 7.40297 4.89543 7.99992 6 7.99992Z" fill="#FBAF29"/>
<mask id="mask5_704_32798" style="mask-type:luminance" maskUnits="userSpaceOnUse" x="4" y="5" width="4" height="3">
<path fill-rule="evenodd" clip-rule="evenodd" d="M6 7.99992C7.10457 7.99992 8 7.40297 8 6.66659C8 5.93021 7.10457 5.33325 6 5.33325C4.89543 5.33325 4 5.93021 4 6.66659C4 7.40297 4.89543 7.99992 6 7.99992Z" fill="white"/>
</mask>
<g mask="url(#mask5_704_32798)">
<path fill-rule="evenodd" clip-rule="evenodd" d="M6.00016 7.33333C6.36835 7.33333 6.66683 7.03486 6.66683 6.66667C6.66683 6.29848 6.36835 6 6.00016 6C5.63197 6 5.3335 6.29848 5.3335 6.66667C5.3335 7.03486 5.63197 7.33333 6.00016 7.33333Z" fill="#DD404F"/>
<rect x="4" y="5.33325" width="1.33333" height="2.66667" fill="#28AE67"/>
<rect x="6.6665" y="5.33325" width="1.33333" height="2.66667" fill="#28AE67"/>
</g>
<path fill-rule="evenodd" clip-rule="evenodd" d="M14.8225 4.23824C14.5858 4.52029 14.6226 4.94079 14.9047 5.17746C15.1867 5.41413 15.6072 5.37734 15.8439 5.09529C16.0806 4.81324 16.0438 4.39274 15.7617 4.15607C15.4797 3.9194 15.0592 3.95619 14.8225 4.23824ZM13.095 6.82273C12.813 6.58607 12.3925 6.62286 12.1558 6.90491C11.9192 7.18695 11.9559 7.60746 12.238 7.84413C12.52 8.08079 12.9405 8.044 13.1772 7.76196C13.4139 7.47991 13.3771 7.0594 13.095 6.82273ZM11.7617 5.4894C11.4797 5.25273 11.0592 5.28952 10.8225 5.57157C10.5858 5.85362 10.6226 6.27413 10.9047 6.51079C11.1867 6.74746 11.6072 6.71067 11.8439 6.42862C12.0806 6.14657 12.0438 5.72607 11.7617 5.4894ZM14.4284 2.82273C14.1463 2.58607 13.7258 2.62286 13.4892 2.90491C13.2525 3.18695 13.2893 3.60746 13.5713 3.84413C13.8534 4.08079 14.2739 4.04401 14.5105 3.76196C14.7472 3.47991 14.7104 3.0594 14.4284 2.82273ZM13.7617 4.82273C13.4797 4.58607 13.0592 4.62286 12.8225 4.90491C12.5858 5.18695 12.6226 5.60746 12.9047 5.84413C13.1867 6.08079 13.6072 6.04401 13.8439 5.76196C14.0806 5.47991 14.0438 5.0594 13.7617 4.82273Z" fill="white"/>
<path fill-rule="evenodd" clip-rule="evenodd" d="M17.4763 9.45045C15.8883 11.0385 13.3135 11.0385 11.7255 9.45045C11.5716 9.29658 11.4327 9.13343 11.3086 8.96282C12.8987 10.1191 15.1376 9.98009 16.5718 8.54592C18.006 7.11175 18.1449 4.87284 16.9887 3.28271C17.1593 3.40677 17.3225 3.54574 17.4763 3.69962C19.0644 5.28767 19.0644 7.8624 17.4763 9.45045Z" fill="white"/>
</g>
</svg>
