<svg width="28" height="20" viewBox="0 0 28 20" fill="none" xmlns="http://www.w3.org/2000/svg">
<rect width="28" height="20" rx="2" fill="white"/>
<mask id="mask0_704_32880" style="mask-type:luminance" maskUnits="userSpaceOnUse" x="0" y="0" width="28" height="20">
<rect width="28" height="20" rx="2" fill="white"/>
</mask>
<g mask="url(#mask0_704_32880)">
<path fill-rule="evenodd" clip-rule="evenodd" d="M28 0H0V1.33333H28V0ZM28 2.66667H0V4H28V2.66667ZM0 5.33333H28V6.66667H0V5.33333ZM28 8H0V9.33333H28V8ZM0 10.6667H28V12H0V10.6667ZM28 13.3333H0V14.6667H28V13.3333ZM0 16H28V17.3333H0V16ZM28 18.6667H0V20H28V18.6667Z" fill="#D02F44"/>
<rect width="12" height="9.33333" fill="#46467F"/>
<g filter="url(#filter0_d_704_32880)">
<path fill-rule="evenodd" clip-rule="evenodd" d="M2.66683 1.99992C2.66683 2.36811 2.36835 2.66659 2.00016 2.66659C1.63197 2.66659 1.3335 2.36811 1.3335 1.99992C1.3335 1.63173 1.63197 1.33325 2.00016 1.33325C2.36835 1.33325 2.66683 1.63173 2.66683 1.99992ZM5.3335 1.99992C5.3335 2.36811 5.03502 2.66659 4.66683 2.66659C4.29864 2.66659 4.00016 2.36811 4.00016 1.99992C4.00016 1.63173 4.29864 1.33325 4.66683 1.33325C5.03502 1.33325 5.3335 1.63173 5.3335 1.99992ZM7.3335 2.66659C7.70169 2.66659 8.00016 2.36811 8.00016 1.99992C8.00016 1.63173 7.70169 1.33325 7.3335 1.33325C6.96531 1.33325 6.66683 1.63173 6.66683 1.99992C6.66683 2.36811 6.96531 2.66659 7.3335 2.66659ZM10.6668 1.99992C10.6668 2.36811 10.3684 2.66659 10.0002 2.66659C9.63197 2.66659 9.3335 2.36811 9.3335 1.99992C9.3335 1.63173 9.63197 1.33325 10.0002 1.33325C10.3684 1.33325 10.6668 1.63173 10.6668 1.99992ZM3.3335 3.99992C3.70169 3.99992 4.00016 3.70144 4.00016 3.33325C4.00016 2.96506 3.70169 2.66659 3.3335 2.66659C2.96531 2.66659 2.66683 2.96506 2.66683 3.33325C2.66683 3.70144 2.96531 3.99992 3.3335 3.99992ZM6.66683 3.33325C6.66683 3.70144 6.36835 3.99992 6.00016 3.99992C5.63197 3.99992 5.3335 3.70144 5.3335 3.33325C5.3335 2.96506 5.63197 2.66659 6.00016 2.66659C6.36835 2.66659 6.66683 2.96506 6.66683 3.33325ZM8.66683 3.99992C9.03502 3.99992 9.3335 3.70144 9.3335 3.33325C9.3335 2.96506 9.03502 2.66659 8.66683 2.66659C8.29864 2.66659 8.00016 2.96506 8.00016 3.33325C8.00016 3.70144 8.29864 3.99992 8.66683 3.99992ZM10.6668 4.66659C10.6668 5.03478 10.3684 5.33325 10.0002 5.33325C9.63197 5.33325 9.3335 5.03478 9.3335 4.66659C9.3335 4.2984 9.63197 3.99992 10.0002 3.99992C10.3684 3.99992 10.6668 4.2984 10.6668 4.66659ZM7.3335 5.33325C7.70169 5.33325 8.00016 5.03478 8.00016 4.66659C8.00016 4.2984 7.70169 3.99992 7.3335 3.99992C6.96531 3.99992 6.66683 4.2984 6.66683 4.66659C6.66683 5.03478 6.96531 5.33325 7.3335 5.33325ZM5.3335 4.66659C5.3335 5.03478 5.03502 5.33325 4.66683 5.33325C4.29864 5.33325 4.00016 5.03478 4.00016 4.66659C4.00016 4.2984 4.29864 3.99992 4.66683 3.99992C5.03502 3.99992 5.3335 4.2984 5.3335 4.66659ZM2.00016 5.33325C2.36835 5.33325 2.66683 5.03478 2.66683 4.66659C2.66683 4.2984 2.36835 3.99992 2.00016 3.99992C1.63197 3.99992 1.3335 4.2984 1.3335 4.66659C1.3335 5.03478 1.63197 5.33325 2.00016 5.33325ZM4.00016 5.99992C4.00016 6.36811 3.70169 6.66659 3.3335 6.66659C2.96531 6.66659 2.66683 6.36811 2.66683 5.99992C2.66683 5.63173 2.96531 5.33325 3.3335 5.33325C3.70169 5.33325 4.00016 5.63173 4.00016 5.99992ZM6.00016 6.66659C6.36835 6.66659 6.66683 6.36811 6.66683 5.99992C6.66683 5.63173 6.36835 5.33325 6.00016 5.33325C5.63197 5.33325 5.3335 5.63173 5.3335 5.99992C5.3335 6.36811 5.63197 6.66659 6.00016 6.66659ZM9.3335 5.99992C9.3335 6.36811 9.03502 6.66659 8.66683 6.66659C8.29864 6.66659 8.00016 6.36811 8.00016 5.99992C8.00016 5.63173 8.29864 5.33325 8.66683 5.33325C9.03502 5.33325 9.3335 5.63173 9.3335 5.99992ZM10.0002 7.99992C10.3684 7.99992 10.6668 7.70144 10.6668 7.33325C10.6668 6.96506 10.3684 6.66659 10.0002 6.66659C9.63197 6.66659 9.3335 6.96506 9.3335 7.33325C9.3335 7.70144 9.63197 7.99992 10.0002 7.99992ZM8.00016 7.33325C8.00016 7.70144 7.70169 7.99992 7.3335 7.99992C6.96531 7.99992 6.66683 7.70144 6.66683 7.33325C6.66683 6.96506 6.96531 6.66659 7.3335 6.66659C7.70169 6.66659 8.00016 6.96506 8.00016 7.33325ZM4.66683 7.99992C5.03502 7.99992 5.3335 7.70144 5.3335 7.33325C5.3335 6.96506 5.03502 6.66659 4.66683 6.66659C4.29864 6.66659 4.00016 6.96506 4.00016 7.33325C4.00016 7.70144 4.29864 7.99992 4.66683 7.99992ZM2.66683 7.33325C2.66683 7.70144 2.36835 7.99992 2.00016 7.99992C1.63197 7.99992 1.3335 7.70144 1.3335 7.33325C1.3335 6.96506 1.63197 6.66659 2.00016 6.66659C2.36835 6.66659 2.66683 6.96506 2.66683 7.33325Z" fill="url(#paint0_linear_704_32880)"/>
</g>
</g>
<defs>
<filter id="filter0_d_704_32880" x="1.3335" y="1.33325" width="9.3335" height="7.66675" filterUnits="userSpaceOnUse" color-interpolation-filters="sRGB">
<feFlood flood-opacity="0" result="BackgroundImageFix"/>
<feColorMatrix in="SourceAlpha" type="matrix" values="0 0 0 0 0 0 0 0 0 0 0 0 0 0 0 0 0 0 127 0" result="hardAlpha"/>
<feOffset dy="1"/>
<feColorMatrix type="matrix" values="0 0 0 0 0 0 0 0 0 0 0 0 0 0 0 0 0 0 0.06 0"/>
<feBlend mode="normal" in2="BackgroundImageFix" result="effect1_dropShadow_704_32880"/>
<feBlend mode="normal" in="SourceGraphic" in2="effect1_dropShadow_704_32880" result="shape"/>
</filter>
<linearGradient id="paint0_linear_704_32880" x1="1.3335" y1="1.33325" x2="1.3335" y2="7.99992" gradientUnits="userSpaceOnUse">
<stop stop-color="white"/>
<stop offset="1" stop-color="#F0F0F0"/>
</linearGradient>
</defs>
</svg>
