<svg width="28" height="20" viewBox="0 0 28 20" fill="none" xmlns="http://www.w3.org/2000/svg">
<rect x="0.25" y="0.25" width="27.5" height="19.5" rx="1.75" fill="white" stroke="#F5F5F5" stroke-width="0.5"/>
<mask id="mask0_704_32835" style="mask-type:luminance" maskUnits="userSpaceOnUse" x="0" y="0" width="28" height="20">
<rect x="0.25" y="0.25" width="27.5" height="19.5" rx="1.75" fill="white" stroke="white" stroke-width="0.5"/>
</mask>
<g mask="url(#mask0_704_32835)">
<path fill-rule="evenodd" clip-rule="evenodd" d="M0 6.66667H28V0H0V6.66667Z" fill="#04AAC8"/>
<path fill-rule="evenodd" clip-rule="evenodd" d="M0 19.9999H28V13.3333H0V19.9999Z" fill="#23C840"/>
<path fill-rule="evenodd" clip-rule="evenodd" d="M4.6665 5.33325C5.07778 5.33325 5.46007 5.20911 5.77793 4.99625C5.7411 4.99868 5.70395 4.99992 5.6665 4.99992C4.74603 4.99992 3.99984 4.25373 3.99984 3.33325C3.99984 2.41278 4.74603 1.66659 5.6665 1.66659C5.70395 1.66659 5.7411 1.66782 5.77793 1.67025C5.46007 1.45739 5.07778 1.33325 4.6665 1.33325C3.56193 1.33325 2.6665 2.22868 2.6665 3.33325C2.6665 4.43782 3.56193 5.33325 4.6665 5.33325ZM7.99984 4.66659C7.99984 5.03478 7.70136 5.33325 7.33317 5.33325C6.96498 5.33325 6.6665 5.03478 6.6665 4.66659C6.6665 4.2984 6.96498 3.99992 7.33317 3.99992C7.70136 3.99992 7.99984 4.2984 7.99984 4.66659ZM9.99984 2.66659C10.368 2.66659 10.6665 2.36811 10.6665 1.99992C10.6665 1.63173 10.368 1.33325 9.99984 1.33325C9.63165 1.33325 9.33317 1.63173 9.33317 1.99992C9.33317 2.36811 9.63165 2.66659 9.99984 2.66659ZM13.3332 1.99992C13.3332 2.36811 13.0347 2.66659 12.6665 2.66659C12.2983 2.66659 11.9998 2.36811 11.9998 1.99992C11.9998 1.63173 12.2983 1.33325 12.6665 1.33325C13.0347 1.33325 13.3332 1.63173 13.3332 1.99992ZM12.6665 5.33325C13.0347 5.33325 13.3332 5.03478 13.3332 4.66659C13.3332 4.2984 13.0347 3.99992 12.6665 3.99992C12.2983 3.99992 11.9998 4.2984 11.9998 4.66659C11.9998 5.03478 12.2983 5.33325 12.6665 5.33325ZM10.6665 4.66659C10.6665 5.03478 10.368 5.33325 9.99984 5.33325C9.63165 5.33325 9.33317 5.03478 9.33317 4.66659C9.33317 4.2984 9.63165 3.99992 9.99984 3.99992C10.368 3.99992 10.6665 4.2984 10.6665 4.66659Z" fill="white"/>
</g>
</svg>
