<svg width="28" height="20" viewBox="0 0 28 20" fill="none" xmlns="http://www.w3.org/2000/svg">
<rect width="28" height="20" rx="2" fill="white"/>
<mask id="mask0_704_32942" style="mask-type:luminance" maskUnits="userSpaceOnUse" x="0" y="0" width="28" height="20">
<rect width="28" height="20" rx="2" fill="white"/>
</mask>
<g mask="url(#mask0_704_32942)">
<rect width="28" height="20" fill="#07319C"/>
<path fill-rule="evenodd" clip-rule="evenodd" d="M17.3335 9.99992C17.3335 8.90618 17.3335 7.61306 17.3335 6.66574C17.3335 5.92936 17.9304 5.33325 18.6668 5.33325H22.6668C23.4032 5.33325 24.0002 5.92936 24.0002 6.66574C24.0002 7.61306 24.0002 8.90618 24.0002 9.99992C24.0002 13.3333 20.6668 14.6666 20.6668 14.6666C20.6668 14.6666 17.3335 13.3333 17.3335 9.99992Z" fill="#008339"/>
<mask id="mask1_704_32942" style="mask-type:luminance" maskUnits="userSpaceOnUse" x="17" y="5" width="7" height="10">
<path fill-rule="evenodd" clip-rule="evenodd" d="M17.3335 9.99992C17.3335 8.90618 17.3335 7.61306 17.3335 6.66574C17.3335 5.92936 17.9304 5.33325 18.6668 5.33325H22.6668C23.4032 5.33325 24.0002 5.92936 24.0002 6.66574C24.0002 7.61306 24.0002 8.90618 24.0002 9.99992C24.0002 13.3333 20.6668 14.6666 20.6668 14.6666C20.6668 14.6666 17.3335 13.3333 17.3335 9.99992Z" fill="white"/>
</mask>
<g mask="url(#mask1_704_32942)">
<path fill-rule="evenodd" clip-rule="evenodd" d="M19.3337 7.99984C19.7018 7.99984 20.0003 7.70136 20.0003 7.33317C20.0003 6.96498 19.7018 6.6665 19.3337 6.6665C18.9655 6.6665 18.667 6.96498 18.667 7.33317C18.667 7.70136 18.9655 7.99984 19.3337 7.99984ZM19.3337 9.33317C19.7018 9.33317 20.0003 9.03469 20.0003 8.6665C20.0003 8.29831 19.7018 7.99984 19.3337 7.99984C18.9655 7.99984 18.667 8.29831 18.667 8.6665C18.667 9.03469 18.9655 9.33317 19.3337 9.33317ZM19.3337 10.6665C18.9655 10.6665 18.667 10.368 18.667 9.99984C18.667 9.63165 18.9655 9.33317 19.3337 9.33317C19.7018 9.33317 20.0003 9.63165 20.0003 9.99984C20.0003 10.368 19.7018 10.6665 19.3337 10.6665ZM19.3337 10.6665C19.7018 10.6665 20.0003 10.965 20.0003 11.3332C20.0003 11.7014 19.7018 11.9998 19.3337 11.9998C18.9655 11.9998 18.667 11.7014 18.667 11.3332C18.667 10.965 18.9655 10.6665 19.3337 10.6665ZM22.667 11.3332C22.667 11.7014 22.3685 11.9998 22.0003 11.9998C21.6321 11.9998 21.3337 11.7014 21.3337 11.3332C21.3337 10.965 21.6321 10.6665 22.0003 10.6665C22.3685 10.6665 22.667 10.965 22.667 11.3332ZM22.0003 9.33317C22.3685 9.33317 22.667 9.63165 22.667 9.99984C22.667 10.368 22.3685 10.6665 22.0003 10.6665C21.6321 10.6665 21.3337 10.368 21.3337 9.99984C21.3337 9.63165 21.6321 9.33317 22.0003 9.33317ZM22.0003 7.99984C21.6321 7.99984 21.3337 8.29831 21.3337 8.6665C21.3337 9.03469 21.6321 9.33317 22.0003 9.33317C22.3685 9.33317 22.667 9.03469 22.667 8.6665C22.667 8.29831 22.3685 7.99984 22.0003 7.99984ZM22.0003 7.99984C21.6321 7.99984 21.3337 7.70136 21.3337 7.33317C21.3337 6.96498 21.6321 6.6665 22.0003 6.6665C22.3685 6.6665 22.667 6.96498 22.667 7.33317C22.667 7.70136 22.3685 7.99984 22.0003 7.99984Z" fill="#FFD033"/>
<path fill-rule="evenodd" clip-rule="evenodd" d="M20.6667 11.3333C21.0349 11.3333 21.3333 10.4378 21.3333 9.33325C21.3333 8.22868 21.0349 7.33325 20.6667 7.33325C20.2985 7.33325 20 8.22868 20 9.33325C20 10.4378 20.2985 11.3333 20.6667 11.3333Z" fill="white"/>
</g>
<path d="M16.6665 13.3334C16.6665 14.6049 18.4877 15.3334 20.6665 15.3334C22.8453 15.3334 24.6665 14.6049 24.6665 13.3334C24.6665 12.9652 24.368 12.6667 23.9998 12.6667C23.6316 12.6667 23.3332 12.9652 23.3332 13.3334C23.3332 13.3462 23.1716 13.499 22.7759 13.6572C22.2389 13.8721 21.4822 14.0001 20.6665 14.0001C19.8508 14.0001 19.0942 13.8721 18.5571 13.6572C18.1614 13.499 17.9998 13.3462 17.9998 13.3334C17.9998 12.9652 17.7014 12.6667 17.3332 12.6667C16.965 12.6667 16.6665 12.9652 16.6665 13.3334Z" fill="#FFD033"/>
<path d="M12.333 0.495117C12.333 0.683588 12.2536 0.861844 12.1162 0.987305L12.0537 1.03809L7.66699 4.1709V5.17969L11.7646 8.69238L11.8301 8.75879C12.1237 9.10471 11.8861 9.66675 11.4043 9.66699C11.3179 9.66699 11.2328 9.64666 11.1562 9.6084L11.082 9.56348L6.55859 6.33301H5.42871L0.176758 9.61621L-0.333008 9.93457V8.49512L-0.193359 8.39551L4.33301 5.16211V4.15234L-0.216797 0.25293L-0.901367 -0.333008H0.773438L0.860352 -0.271484L5.43945 3H6.57129L11.8232 -0.282227L12.333 -0.601562V0.495117Z" fill="#DB1E36" stroke="white" stroke-width="0.666667"/>
<path fill-rule="evenodd" clip-rule="evenodd" d="M0 3.33333V6H4.66667V9.33333C4.66667 9.70152 4.96514 10 5.33333 10H6.66667C7.03486 10 7.33333 9.70152 7.33333 9.33333V6H12C12.3682 6 12.6667 5.70152 12.6667 5.33333V4C12.6667 3.63181 12.3682 3.33333 12 3.33333H7.33333V0H4.66667V3.33333H0Z" fill="white"/>
<path fill-rule="evenodd" clip-rule="evenodd" d="M0 4H5.33333V3.33333V0H6.66667V3.33333V4H12V5.33333H6.66667V6V9.33333H5.33333V6V5.33333H0V4Z" fill="#DB1E36"/>
</g>
</svg>
